<svg width="15" height="18" viewBox="0 0 15 18" fill="none" xmlns="http://www.w3.org/2000/svg">
<path d="M14.2857 14.471C14.2857 11.5357 13.5603 8.14286 10.6362 8.14286C9.73214 9.02455 8.50446 9.57143 7.14286 9.57143C5.78125 9.57143 4.55357 9.02455 3.64955 8.14286C0.725446 8.14286 0 11.5357 0 14.471C0 16.1004 1.07143 17.4286 2.37723 17.4286H11.9085C13.2143 17.4286 14.2857 16.1004 14.2857 14.471ZM11.4286 4.57143C11.4286 2.20536 9.50893 0.285713 7.14286 0.285713C4.77679 0.285713 2.85714 2.20536 2.85714 4.57143C2.85714 6.9375 4.77679 8.85714 7.14286 8.85714C9.50893 8.85714 11.4286 6.9375 11.4286 4.57143Z" fill="#3E4653"/>
</svg>
