<svg width="20" height="14" viewBox="0 0 20 14" fill="none" xmlns="http://www.w3.org/2000/svg">
<path d="M19.3359 2.60938C19.2188 2.1875 19.0078 1.82422 18.7031 1.51953C18.3984 1.21484 18.0352 1.00391 17.6133 0.886719C17.0039 0.722656 15.5742 0.605469 13.3242 0.535156L10.125 0.5L6.92578 0.535156C4.67578 0.605469 3.24609 0.722656 2.63672 0.886719C2.21484 1.00391 1.85156 1.21484 1.54688 1.51953C1.24219 1.82422 1.03125 2.1875 0.914062 2.60938C0.75 3.24219 0.632812 4.20312 0.5625 5.49219C0.539062 6.14844 0.527344 6.73438 0.527344 7.25L0.5625 9.00781C0.632812 10.3203 0.75 11.293 0.914062 11.9258C1.03125 12.3242 1.24219 12.6758 1.54688 12.9805C1.85156 13.2852 2.21484 13.4961 2.63672 13.6133C3.24609 13.7773 4.67578 13.8945 6.92578 13.9648L10.125 14L13.3242 13.9648C15.5742 13.8945 17.0039 13.7773 17.6133 13.6133C18.0352 13.4961 18.3984 13.2852 18.7031 12.9805C19.0078 12.6758 19.2188 12.3242 19.3359 11.9258C19.5 11.293 19.6172 10.3203 19.6875 9.00781L19.7227 7.25L19.6875 5.49219C19.6172 4.20312 19.5 3.24219 19.3359 2.60938ZM8.15625 10.1328V4.40234L13.1836 7.25L8.15625 10.1328Z" fill="#3E4653"/>
</svg>
