<?xml version="1.0" standalone="no"?>
<!DOCTYPE svg PUBLIC "-//W3C//DTD SVG 1.1//EN" "http://www.w3.org/Graphics/SVG/1.1/DTD/svg11.dtd" >
<svg>
<metadata>
Created by FontForge 20090622 at Mon Jul 29 21:34:47 2019
 By deploy user
Copyright (c) 2017 by Maulana Creative. All rights reserved.
</metadata>
<defs>
<font id="Augustia" horiz-adv-x="213" >
  <font-face 
    font-family="Augustia"
    font-weight="400"
    font-stretch="normal"
    units-per-em="1000"
    panose-1="0 0 0 0 0 0 0 0 0 0"
    ascent="750"
    descent="-250"
    x-height="291"
    cap-height="735"
    bbox="-727.333 -244.034 784 745"
    underline-thickness="50"
    underline-position="-50"
    unicode-range="U+000D-U+201D"
  />
<missing-glyph 
 />
    <glyph glyph-name="rr" unicode="rr" horiz-adv-x="398" 
d="M398 291q2 -1 3.5 -2.5t4 -6.5t-3.5 -9l-6 -6l-43 -41q-36 -33 -37 -34l-50 -48l-64 -58q-49 -46 -74 -55l-2 -1h-2v0q-1 0 -2 -1q-10 -2 -15 2q-2 0 -2 2h-1q-12 13 15 58l16 23q4 9 11 17q28 42 41 63l36 54q6 10 16 23q-29 -10 -36 -1l-208 -153l-1 -1
q-22 -18 -38 -13q-4 1 -6 5q-7 8 -1 24q4 16 14 32q2 2 4.5 6.5t5 8t5.5 6.5q3 4 27.5 41.5t29.5 44.5q-25 -8 -32.5 -3.5t-4.5 14.5l2 9q10 -6 34 1q7 2 14 2q24 -1 19 -25q-1 -4 -5 -10l-7 -12l-13 -19q-5 -9 -11 -16q-2 -4 -7 -11t-6 -8q-2 -3 -6 -8.5t-6 -8.5
q-2 -4 -8 -12q-1 -2 -5 -7t-5 -8q0 -1 -1.5 -3t-2.5 -4q-2 -4 -1 -6l208 145q0 1 1 1l12 9l1 -1q4 -1 13 -1q1 0 19 3q7 2 14 2q23 -1 20 -25q-1 -4 -5 -10q-5 -7 -8 -12l-1 -2l-63 -97l-19 -30l-21 -32l-3 -5h-1l-8 -13z" />
    <glyph glyph-name="tt" unicode="tt" horiz-adv-x="342" 
d="M484 488q6 1 10.5 -3.5t4.5 -10.5q0 -13 -15 -15q-21 -2 -61.5 -6.5t-60.5 -6.5q-20 -3 -60 -7l-33 -51l-81 -124q-5 -8 -17 -24l-140 -215l311 266q3 -5 3 -10q0 -6 -2 -10q0 -1 -201 -187l-93 -79l-7 -7l-5 -4l-3 -3q-1 0 -3 -2q-36 -28 -52 -18q-6 3 -6 12q0 8 6 20
q14 21 17 25q0 2 6 10l10 16q4 6 6 8v0q1 2 4 6.5t4 6.5q14 21 17 25l18 27q5 9 17 27l17 26q13 18 16 23l12 18q2 4 8 12q1 1 2 2.5t1 2.5l-229 -185q-2 -2 -3 -2q-37 -29 -52 -19q-13 9 3 38l5 6l198 302l24 36q-24 -2 -74 -7.5l-77 -8.5q-5 -1 -9.5 4t-4.5 11q0 12 14 14
q20 2 61 6.5t62 7.5q14 1 49 5l12 19l54 81q0 2 0.5 4t0.5 3q4 9 13 14q10 5 18.5 -3t1.5 -17l-9 -15l-27 -42l-26 -40q86 10 128 14q12 2 18 2l52 80q0 1 0.5 3.5t1.5 3.5q3 8 13 14q9 5 17.5 -3t2.5 -17l-9 -15l-27 -42l-13 -19q48 4 161 17zM167 287l97 148l-118 -13
l-28 -3l-20 -31l-81 -124q-5 -8 -15.5 -23.5t-15.5 -23.5l-87 -132l46 35z" />
    <glyph glyph-name=".notdef" 
 />
    <glyph glyph-name=".null" horiz-adv-x="0" 
 />
    <glyph glyph-name="nonmarkingreturn" horiz-adv-x="333" 
 />
    <glyph glyph-name="NULL" horiz-adv-x="0" 
 />
    <glyph glyph-name="NULL" horiz-adv-x="0" 
 />
    <glyph glyph-name="CR" unicode="&#xd;" 
 />
    <glyph glyph-name="space" unicode=" " 
 />
    <glyph glyph-name="exclam" unicode="!" horiz-adv-x="190" 
d="M287 580q5 -2 6.5 -7.5t-2.5 -10.5l-77 -110l-132 -198l-128 -198q-9 -13 -21 -10q-5 2 -6.5 7.5t2.5 10.5l71 112l131 198l134 196q11 13 22 10zM-100 -4q6 0 10.5 -4.5t4.5 -10.5q0 -5 -4.5 -9.5t-10.5 -4.5q-14 0 -14 14q0 6 4.5 10.5t9.5 4.5z" />
    <glyph glyph-name="quotedbl" unicode="&#x22;" horiz-adv-x="273" 
d="M237 672q14 -8 6 -21l-37 -55q-9 -13 -20 -5q-5 2 -7 8.5t1 11.5q18 25 37 55q9 12 20 6zM283 672q12 -8 5 -21l-37 -55q-8 -14 -20 -5q-5 2 -6.5 8.5t1.5 11.5q18 25 37 55q8 13 20 6z" />
    <glyph glyph-name="numbersign" unicode="#" horiz-adv-x="271" 
d="M200 266q2 -6 -1 -11.5t-9 -6.5q-23 -4 -37 -5q-4 -6 -5 -7q5 0 8 1q14 2 18 -11q1 -5 -2 -11t-9 -7q-6 0 -18 -2t-18 -2l-23 -34q-7 -12 -20 -5q-13 9 -5 20q4 6 10 14q-7 0 -11 -1q-5 -8 -15.5 -23.5t-15.5 -23.5q-9 -13 -20 -5q-5 2 -7 8.5t2 11.5l19 28h-8
q-6 -1 -10.5 3.5t-4.5 10.5q0 13 15 15l29 3q1 2 5 8q-3 -1 -7 -1q-6 -1 -10.5 4t-4.5 10q0 13 15 15q18 2 28 3l37 56q9 11 20 5q14 -8 5 -20q-22 -33 -25 -37q7 0 11 1l21 32q9 11 20 5q14 -8 5 -20q-2 -4 -8 -12q6 0 8 1q15 2 18 -10zM110 231q2 4 5 7q-7 0 -11 -1
q-2 -4 -5 -7q7 0 11 1z" />
    <glyph glyph-name="dollar" unicode="$" horiz-adv-x="295" 
d="M-23 169v0v1v-1zM317 567q15 -8 11 -26l-9 -24q-14 -29 -57 -80q-9 -10 -21 0q-10 10 0 21q8 8 16 19q17 20 27 38q7 10 11 20q1 3 3 7l-2 1q-2 0 -5.5 -0.5t-5.5 -0.5h-1h-2q-2 -1 -5 -1q-26 -44 -40 -65l-35 -53q18 -22 25 -39q18 -45 1 -88q-15 -38 -60 -76
q-42 -34 -82 -53q-42 -20 -79 -27l-60 -87q-9 -11 -20 -5q-13 8 -6 20l50 72q-15 6 -20 16q-9 17 -1 44q14 46 46 87q7 12 20 6q5 -3 6.5 -9t-1.5 -11q-10 -14 -14 -21q-12 -20 -22 -41q-1 -4 -3.5 -11l-3.5 -10q0 -1 -1 -3t-1 -3v-3v-8v-1v-1q1 -1 1 -2v0v0l2 -1q5 -2 11 0
q7 8 14 19l146 210q3 4 8.5 12.5t8.5 12.5q-6 8 -8 13q-12 27 -3 50q9 22 27 37q12 12 38 28q22 11 37 16q16 25 28 47q7 12 20 5q12 -7 5 -20l-15 -26q11 0 21 -5zM182 459q1 -4 3 -10l46 72q-4 -2 -7 -4q-18 -11 -32 -27q-13 -15 -10 -31zM186 396q0 1 -1 2
q-29 -45 -91 -133l-61 -88q1 1 3.5 2t3.5 1q43 14 83 43q46 32 66 61q13 19 16 41l1 1v3v5v10v6v1q0 1 -1 1q0 4 -2 10q-4 18 -17 34z" />
    <glyph glyph-name="percent" unicode="%" horiz-adv-x="187" 
d="M289 574q13 -8 2 -19l-93 -100q-73 -80 -156 -181l-146 -187q-9 -13 -22 -4q-12 7 -2 18l81 107q68 86 152 183l73 83q-1 0 -2.5 -1t-2.5 -2q-52 -21 -68 -4q-10 12 2 34q6 12 21 29q20 18 35 17q25 -2 22 -23q-1 -5 -6.5 -9.5t-11.5 -3.5q-9 0 -12 7l-1 -1
q-12 -12 -17 -22q-2 -2 -4 -6l-1 -2v-1h1l2 1q2 0 11 3q1 0 3 0.5t4.5 1.5t3.5 1q1 1 3 1.5t4 1.5l4 2q8 3 22 11l2 1l1 1q1 1 2 1q1 1 5 3l10 7l21 15q19 15 36 32q11 11 22 5zM158 520zM158 520zM131 486v0v0zM131 486h-1h1zM132 485v0v0zM56 235q15 -5 20 -19t-2 -28
q-7 -19 -36 -42q-15 -13 -26 -14q-19 -5 -26 11q-9 17 17 50q15 18 32 31v1q8 14 21 10zM10 158zM15 157v0v0zM25 170q12 12 16 18q2 2 5 8q0 3 1 3q-10 -7 -20 -21q-3 -4 -9 -14l1 1q2 1 6 5zM15 157z" />
    <glyph glyph-name="ampersand" unicode="&#x26;" horiz-adv-x="286" 
d="M116 102zM116 102zM116 102v0v0zM242 502q17 -8 13 -32q-1 -7 -3.5 -13.5l-4.5 -11.5t-6.5 -12t-7 -10.5t-8.5 -10.5t-8 -9.5t-9.5 -10.5t-8.5 -9l-122 -121q0 -20 3 -40l63 53q10 10 19 -1q4 -4 4 -11t-4 -11l-51 -43l-24 -21q0 -3 1 -5q6 -26 15 -52q1 -3 2.5 -7
t2.5 -7l1 -2v-1q1 -1 1 -2.5t1 -2.5t3 -5q0 -1 1 -2h1v0l1 -1h-1v1h1h-1h1q5 0 9.5 -5t4.5 -11q-2 -14 -15 -14t-22 12q-11 14 -22 53q-6 15 -9 31q-2 -2 -17.5 -15l-23.5 -20l-45 -38q-33 -29 -47 -34q-6 -2 -11.5 3.5t-6.5 12.5q0 14 7 30q4 9 26 43q9 14 29 40
q25 32 64 75l10 10q0 12 2 34q9 63 34 103q17 25 37 42q24 22 45 34q24 15 51 18q14 0 25 -4zM228 480zM-32 126l87 75q-1 5 -2.5 16t-2.5 17q-30 -32 -59 -70q-18 -23 -30 -43q1 1 7 5zM205 434q17 21 22 39v2h-6h-2h-1q-2 0 -5.5 -0.5t-4.5 -0.5q-21 -5 -42 -22
q-45 -31 -66 -71q-16 -32 -21 -75l94 94q22 22 32 34z" />
    <glyph glyph-name="quotesingle" unicode="'" horiz-adv-x="250" 
d="M245 642q14 -8 6 -21l-37 -55q-9 -13 -20 -5q-5 2 -7 8.5t1 11.5q18 25 37 55q9 12 20 6z" />
    <glyph glyph-name="parenleft" unicode="(" horiz-adv-x="165" 
d="M395 669q2 -4 0.5 -10.5t-6.5 -8.5q-30 -18 -69 -58l-63 -71q-111 -132 -192 -270q-46 -82 -75 -149q-19 -43 -25 -76q-4 -16 -4 -34q1 -3 1 -10v-1v-1q1 -2 1 -3q1 -3 5 -16q2 -5 -1.5 -10.5t-8.5 -6.5q-13 -4 -18 10q-14 30 -2 85q8 35 33 91q68 150 172 293
q48 67 107 135q32 37 58 63q34 35 67 54q11 7 20 -6z" />
    <glyph glyph-name="parenright" unicode=")" horiz-adv-x="153" 
d="M203 661q4 -38 -9 -92q-11 -43 -27 -88q-57 -175 -135 -302q-90 -145 -199 -231q-11 -10 -21 0q-11 11 0 20q65 51 118 117q90 111 160 270q30 71 55 151q15 46 23 78q9 48 6 77q-1 6 4 10.5t11 4.5q12 0 14 -15z" />
    <glyph glyph-name="asterisk" unicode="*" horiz-adv-x="309" 
d="M195 252q6 1 10.5 -4t4.5 -11q0 -13 -15 -15l-62 -6q2 -4 3 -5q1 -3 4 -6l1 -1v-1l3 -3q1 -2 3 -3.5t4 -3.5l3 -3q4 -4 4 -10.5t-4 -10.5q-9 -9 -20 0q-10 9 -16 17q-3 -8 -7 -26q-1 -5 -7 -8.5t-11 -1.5q-15 4 -11 18q1 3 3 9.5t3 9.5q-4 -3 -37 -23q-12 -8 -20 6
q-7 11 6 20q20 12 30 19q-3 -1 -9 -1t-9 -1q-6 -1 -10 4t-4 11q0 12 14 14q7 1 19 2.5t18 1.5q-2 4 -4 6q-2 5 -8 13l-1 1q-1 0 -1 1t-1 2q-4 4 -5 6q-4 4 -4 10t4 10q4 5 10 5t10 -5q12 -11 23 -31q2 5 5.5 15t5.5 15q5 12 16 10.5t13 -14.5q0 -8 -4 -13q0 -1 -0.5 -1
t-0.5 -1q-2 -4 -2 -7l24 20q11 10 21 0q11 -11 0 -21l-15 -12z" />
    <glyph glyph-name="plus" unicode="+" horiz-adv-x="295" 
d="M187 246q6 0 10.5 -4.5t4.5 -9.5q0 -6 -4.5 -10.5t-10.5 -4.5h-61q-16 -25 -50 -73q-8 -13 -20 -6q-5 3 -6.5 9t1.5 11l40 59h-39q-14 0 -14 15q0 5 4 9.5t10 4.5h58l46 71q8 13 20 6q5 -3 7 -9t-2 -11l-36 -57h42z" />
    <glyph glyph-name="comma" unicode="," horiz-adv-x="218" 
d="M48 157q14 -8 6 -20q-2 -3 -11.5 -16t-14.5 -19q-9 -12 -21 0q-9 9 0 20l21 30q9 11 20 5z" />
    <glyph glyph-name="hyphen" unicode="-" horiz-adv-x="257" 
d="M140 252q6 0 10.5 -4.5t4.5 -10.5t-4.5 -10.5t-10.5 -4.5h-85q-6 0 -10.5 4.5t-4.5 10.5t4.5 10.5t10.5 4.5h85z" />
    <glyph glyph-name="period" unicode="." horiz-adv-x="203" 
d="M19 159q15 0 15 -14q0 -6 -4.5 -10.5t-10.5 -4.5q-5 0 -9.5 4.5t-4.5 10.5t4.5 10t9.5 4z" />
    <glyph glyph-name="slash" unicode="/" horiz-adv-x="240" 
d="M370 672q5 -2 7 -8.5t-2 -11.5l-108 -163l-193 -291l-194 -291q-7 -12 -20 -5q-12 8 -5 20l108 163l194 291l193 291q9 13 20 5z" />
    <glyph glyph-name="zero" unicode="0" horiz-adv-x="251" 
d="M294 533q4 -28 -7 -67q-5 -20 -19 -58q-43 -113 -123 -212q-43 -53 -85 -86q-28 -21 -52 -30q-37 -14 -56 9q-16 19 -10 56q2 25 15 61q17 45 59 114q40 62 77 108q49 64 86 81q14 5 20 -5q8 -14 -5 -20q-3 -1 -23 -14q-5 -3 -18 -16q-3 -3 -9 -9.5t-9 -9.5
q-24 -30 -35 -46q-34 -44 -68 -100q-39 -65 -52 -104q-8 -30 -11 -53q0 -8 1 -12v-1v-2v-2q1 -1 1 -2q1 -2 1 -3l1 -1l2 -2q2 -1 3 -1q2 -1 3 -1h2h3h3h1q9 3 11 4q6 2 10 5q2 1 5.5 3t5.5 3q23 14 43 33q37 33 73 81q71 94 107 196q12 30 17 55q2 12 4 28q0 16 -3 25
q-1 1 -2.5 3.5t-1.5 3.5h-1l-2 2h-2l-1 1q-3 0 -4 1h-1h-5h-6q-1 0 -3 -1q-2 0 -50 -23q-14 -6 -20 6q-8 12 5 20q9 4 27 14q36 17 61 12q32 -7 37 -44zM-12 105z" />
    <glyph glyph-name="one" unicode="1" horiz-adv-x="165" 
d="M265 554l-1 -1q0 -1 -1 -2v0l-68 -102l-124 -185l-107 -159q10 0 28 2q6 1 10.5 -4t4.5 -10q0 -13 -15 -15l-89 -9q-6 -1 -10.5 4t-4.5 10q0 13 15 15l23 3l66 98l124 185l103 154l-55 -23q-14 -5 -18 10q-3 12 10 18l95 39q14 5 18 -10v-1q1 -1 1 -3v-1v-1l-2 -4
q-1 -5 -3 -8z" />
    <glyph glyph-name="two" unicode="2" horiz-adv-x="228" 
d="M257 542q7 -33 -11 -72q-10 -26 -37 -67q-34 -49 -93 -113l-31.5 -33l-37 -38.5l-30.5 -33.5q-42 -47 -66 -82q92 20 183 20q6 0 10.5 -4.5t4.5 -10.5t-4.5 -10.5t-10.5 -4.5q-109 2 -212 -28q-9 -2 -15 6t-1 16q35 57 95 124l94 100q52 55 85 103q24 33 37 61
q7 16 10 30q2 14 2 17v7v3v1q0 3 -1 4v2q-1 1 -1 2q-4 11 -20 6l-9 -3q-33 -9 -58 -33q-11 -9 -20 0q-11 11 0 21q33 30 75 42q29 8 43 -1q15 -9 19 -31z" />
    <glyph glyph-name="three" unicode="3" horiz-adv-x="260" 
d="M333 575q7 -7 4 -19q-1 -4 -5.5 -9.5t-4.5 -6.5q-7 -7 -10 -11q-9 -11 -21 -21l-46 -40t-101 -78q-24 -18 -36 -28q10 4 14 6q20 7 30.5 9.5t27 0t26.5 -15.5q18 -24 1 -73q-13 -33 -34 -67q-36 -56 -92 -104q-29 -26 -57 -39q-20 -8 -31 -10q-25 -4 -38 4q-17 9 -19 36
q-1 18 7 38q16 42 41 66q10 9 21 0q10 -12 0 -21q-25 -24 -37 -61q-3 -9 -3 -17v-5l1 -1q0 -3 1 -5v-1l1 -2q0 -1 1 -1l1 -1l1 -1h2h8q3 0 4 1q8 0 14 3q1 1 3.5 1t3.5 1q1 0 1 0.5t1 0.5l2 1q15 7 26 15q21 14 44 37q49 46 78 97q20 37 26 62q2 6 2 16v3q0 2 -2 6l-1 1v1v1
l-1 2h-1v1q-1 0 -1 1q0 -2 -3 1q-1 1 -3 1q-13 1 -33 -7q-18 -5 -32 -12q-16 -6 -33 -15q-24 -12 -37 -9q-7 1 -10 8.5t1 12.5q13 22 57 55l115 88q11 8 57 47q16 14 25 24q7 7 10 11h-8q-9 -1 -27 -5q-28 -4 -57 -12q-54 -13 -116 -38q-5 -2 -10.5 1.5t-7.5 8.5
q-3 12 10 18q74 30 137 43q32 7 63 12q20 2 30 1q14 -2 20 -7zM-10 98zM191 335zM309 565z" />
    <glyph glyph-name="four" unicode="4" horiz-adv-x="272" 
d="M350 566l-78 -114l-73 -108q10 1 31 3.5t32 3.5q6 1 10.5 -4t4.5 -11q0 -14 -15 -14q-14 -1 -42 -4.5t-42 -5.5l-43 -64l-67 -102l-34 -51l-16 -25q-8 -12 -21 -7q-9 4 -11 16q0 11 12 15l66 99l76 115q-2 0 -5 -0.5t-5 -0.5l-59 -6q-5 -1 -15 -2.5t-14 -1.5
q-20 -2 -26 11q-5 10 8 29q1 2 4 6.5t4 6.5l45 53l11 13l41 50l56 66q-1 4 2 8q6 9 15 15q9 5 18 -2.5t2 -17.5q0 -1 -2 -3l-7 -9l-160 -195h4q20 2 29 4l59 6q2 0 8 1t8 1l33 48l131 193q8 12 20 5q5 -3 6.5 -9t-1.5 -11z" />
    <glyph glyph-name="five" unicode="5" horiz-adv-x="267" 
d="M385 580q15 0 15 -14q0 -6 -4.5 -10.5t-10.5 -4.5q-57 0 -107 -7q-33 -4 -46 -7q-1 -1 -5 -1t-5 -1l-119 -184q67 54 96 72l38 20q7 3 23 9q15 6 23 1q17 -10 4 -44q-8 -19 -23 -39q-44 -66 -103 -128q-53 -56 -124 -109q-52 -36 -69 -44q-26 -12 -41 -12q-14 0 -21 7
q-6 6 -5 14t8 13q13 7 20 -5h1l3 1q10 2 17 6q20 10 35 21q39 26 66 47q57 45 108 101q54 61 89 117q8 11 12 22q-6 -2 -9 -4q-34 -16 -69 -41q-21 -15 -63 -49.5t-65 -50.5q-10 -6 -18 2.5t-3 17.5l30 47v0l33 51l55 87q10 14 14 22l6 9l31 49q2 1 5 1t4 1q4 0 12 1.5
l13 2.5q32 6 52 8q53 5 97 5z" />
    <glyph glyph-name="six" unicode="6" horiz-adv-x="220" 
d="M258 577q10 -10 0 -21q-4 -4 -10.5 -11.5t-9.5 -10.5l-155 -183l-29 -36q57 26 89 -2q24 -22 11 -57q-9 -24 -30 -50q-34 -45 -82 -77q-24 -18 -46 -30q-38 -21 -54 -23q-15 -2 -27 10q-11 12 -9 28q0 25 17 59q18 39 66 105q32 44 79 101l169 198q11 11 21 0zM-2 235z
M-64 107zM-63 106zM-63 106v-1v1h-1h1h-1h1zM69 290q-1 -1 -2 -1q-7 -3 -21 -11q-9 -6 -17 -12q-7 -5 -18 -16q-6 -6 -8 -9q-1 -1 -2 -2.5t-2 -2.5l-2 -2v-1q-2 -2 -13 -19q-4 -8 -5 -11q-2 -4 -2 -5l-1 -2l-1 -1q-3 -11 -14 -11l-5.5 -11t-5.5 -10l-10 -23q-2 -10 -4 -15
q0 -4 -1 -6v-1v-1v-7v0v-2q1 0 1 -1v-1h1l1 -1h1h2h1l2 1q2 0 3 1l2 1h3l2 1q0 1 1 1t2 1q2 2 5 2q2 1 5 3t5 3q5 2 12.5 7t9.5 6q27 16 42 29q18 12 37 31q12 12 17 18q1 2 4 5t4 5q2 2 6 8q20 28 24 44q2 11 -2 17h-1l-2 2q0 1 -1 1l-1 1q-1 1 -2 1t-2 1q-1 0 -1 1h-3
q-8 3 -22 1q-3 -1 -7 -2t-7 -2l-6 -3h-2z" />
    <glyph glyph-name="seven" unicode="7" horiz-adv-x="257" 
d="M351 567q6 -8 -2 -18l-85 -103l-84 -103q16 1 46 5q6 1 10.5 -4t4.5 -11q0 -13 -15 -15q-24 -2 -72 -8l-39 -48q-92 -115 -135 -186q-7 -12 -20 -5q-12 8 -5 20q32 51 74 108l84 107q-30 -4 -45 -5q-6 -1 -10 3.5t-4 10.5q0 13 14 15q12 2 35.5 4t35.5 4q36 44 38 47
l121 148q-8 -2 -11 -2q-49 -12 -101 -15q-30 -2 -47 -1q-29 2 -33 23q-4 15 10 18q14 4 18 -10h1q1 -1 2 -1t2 -1h26q38 2 57 5q51 5 113 24q10 3 16 -6zM134 546v-1v1z" />
    <glyph glyph-name="eight" unicode="8" horiz-adv-x="245" 
d="M311 575q20 -8 20 -31q0 -11 -11 -37q-21 -46 -77.5 -120t-71.5 -98q0 -1 -2 -3q10 -71 -45 -130q-22 -25 -53 -46q-31 -23 -62 -34q-38 -14 -58 5q-23 20 -5 69q8 27 32 61q21 30 45 57q41 45 89 80q-1 3 -3.5 7t-3.5 7q-19 46 -11 75q6 27 36 55q52 49 118 73
q11 4 33 10q19 4 30 0zM302 547zM302 547v-1v1zM301 547l-1 1zM293 548zM137 235q9 34 -1 66q-6 14 -10 21q-5 -5 -11 -8q-32 -26 -49 -43q-25 -25 -46 -52q-22 -26 -36 -54l-13 -30q-1 -3 -2 -9t-2 -9v-7v1q-1 0 0 -3l1 -2v-1l2 -2l1 -1l1 -1h1q1 -1 2 -1h2h1h6h1h2
q3 1 8 2.5t6 1.5q28 11 58 33q28 20 48 44q23 24 30 54zM302 544v1v1v1h-1q-1 0 -1 1h-2h-5h-1l-2 -1q-6 -1 -18 -4.5t-14 -4.5q-27 -9 -58 -29q-29 -18 -53 -41q-4 -3 -10 -11q-3 -3 -8 -11q-8 -13 -8 -26q-1 -21 14 -53v0q3 -4 4 -8q2 -4 5.5 -10l6 -10t2.5 -5q4 -8 5 -12
l6 9q14 20 41 55l39 51q21 29 36 55l15 30q1 2 3 7t3 9q1 2 1 6z" />
    <glyph glyph-name="nine" unicode="9" horiz-adv-x="212" 
d="M253 454q-34 -70 -53 -106q-12 -22 -19 -33q-41 -72 -85 -127q-42 -55 -90 -93q-31 -24 -52 -20q-16 3 -23 21q-5 12 1 39q7 32 27 75q8 20 16 34q14 27 32 20q14 -4 10 -18q-4 -10 -14 -10l-3 -6q-2 -3 -4 -9t-4 -9q-10 -20 -15 -35q-9 -21 -14 -38q-1 -3 -2.5 -9.5
t-1.5 -9.5q-2 -11 -1 -14v-1h1v-1l1 -1h1h1h1h-1h1v0q1 1 3 1h1q0 1 1 1v0q1 1 4.5 2.5t5.5 3.5q1 1 2.5 2t2.5 1t1 1l2 1q2 1 4 3.5t4 3.5q12 10 18 16q47 44 86 100q41 58 74 119q10 17 11 20q-41 -43 -65 -60q-24 -20 -41 -11q-12 6 -18 25q-7 30 6 70q11 31 36 72
q22 31 48 56q30 27 55 39q30 13 44 10q21 -4 29 -26q9 -24 -13 -75v-1l-1 -1l-1 -3q-2 -3 -4.5 -9t-4.5 -10zM89 333zM90 332h1h-1zM127 363q35 33 101 107q3 6 9 20q9 20 13 37q0 1 0.5 3.5t0.5 4.5q-1 3 0 3q-1 1 -1 4q-1 1 -1 2l-1 2l-3 3v0l-2 1h-1q-2 1 -5 0h-1
q-5 -1 -13 -5q-12 -6 -26 -14l-12 -9q-1 0 -1 -1l-2 -1q-4 -4 -6 -5q-12 -11 -23 -23q-18 -18 -37 -51q-20 -33 -28 -63q-2 -18 -2 -27q0 -5 1 -7v0v-3q1 -1 1 -3t1 -3v0q0 -1 1 -2v1q1 0 2.5 1t2.5 1q1 1 3 2.5t3 2.5q12 8 26 22zM-40 103l-1 1zM-15 115z" />
    <glyph glyph-name="colon" unicode=":" horiz-adv-x="178" 
d="M91 291q14 0 14 -14q0 -15 -14 -15q-6 0 -10.5 4.5t-4.5 10.5q0 14 15 14zM60 245q15 0 15 -14q0 -6 -4.5 -10.5t-10.5 -4.5q-14 0 -14 15q0 14 14 14z" />
    <glyph glyph-name="semicolon" unicode=";" horiz-adv-x="189" 
d="M96 292q15 0 15 -14q0 -6 -4.5 -10.5t-10.5 -4.5t-10.5 4.5t-4.5 10.5q0 14 15 14zM74 246q14 -8 6 -20q-2 -3 -11.5 -16t-14.5 -19q-9 -12 -21 0q-9 9 0 20l21 30q9 11 20 5z" />
    <glyph glyph-name="less" unicode="&#x3c;" horiz-adv-x="300" 
d="M251 308q3 -12 -10 -18l-72 -27v0h-1l-30.5 -12l-34.5 -14l-53 -20l13 -16l59 -71q11 -11 0 -21q-6 -6 -14 -4q0 1 -1 1q-4 2 -6 4l-67 81q-7 8 -8 11q-3 13 1 24q7 14 28 23q24 10 37 15l141 54q14 5 18 -10zM53 213z" />
    <glyph glyph-name="equal" unicode="=" horiz-adv-x="265" 
d="M154 257q6 0 10.5 -4.5t4.5 -10.5q0 -5 -4.5 -9.5t-10.5 -4.5h-85q-6 0 -10.5 4.5t-4.5 9.5q0 6 4.5 10.5t10.5 4.5h85zM123 210q6 0 10.5 -4.5t4.5 -10.5q0 -14 -15 -14h-85q-15 0 -15 14q0 6 4.5 10.5t10.5 4.5h85z" />
    <glyph glyph-name="greater" unicode="&#x3e;" horiz-adv-x="282" 
d="M162 243l4 -4q12 -14 12 -22q0 -3 -4 -9q-6 -8 -19 -13q-13 -7 -26 -13l-56 -26l-112 -50q-14 -5 -18 7q-5 11 10 18q48 20 71 31h1l1 1l20.5 9l24.5 11l21 10l25 11l27 12l2 2l-70 71l-6 6q-4 3 -4 8.5t4 9.5q4 5 14 5h1q4 -2 6 -4l3 -2q1 -1 2.5 -3t2.5 -3l30 -30
l10.5 -10.5l12 -12z" />
    <glyph glyph-name="question" unicode="?" horiz-adv-x="275" 
d="M396 659q12 -7 12 -24q-1 -14 -13 -38q-7 -13 -46 -62l-60 -67l-61 -67q-80 -90 -117 -137q-25 -32 -51 -71q-1 -2 -19.5 -31t-26.5 -45q-6 -13 -20 -5q-12 7 -5 20q8 17 24 41l14.5 22.5t11.5 18.5q27 40 59 80q21 27 112 130l58 64q48 53 58 65q1 1 3 4t3 4
q12 12 24 29q14 20 19 32q1 3 1 8q-3 4 -8 6q-9 1 -24 -1q-30 -5 -54 -16q-28 -13 -64 -35q-12 -8 -20 6q-6 11 6 20q45 27 77 40q47 19 86 15q14 -2 21 -6zM-36 35q6 0 10.5 -4.5t4.5 -10.5q0 -14 -15 -14t-15 14q0 6 4.5 10.5t10.5 4.5z" />
    <glyph glyph-name="at" unicode="@" horiz-adv-x="297" 
d="M245 346q2 -17 -3 -34q-13 -51 -49 -97q-37 -49 -80 -63q-16 -4 -23 0q-8 4 -10 18q-2 -2 -6 -4q-17 -9 -29 -3q-17 9 -7 33q6 17 25 36q19 20 38 30q26 11 40 -5q10 -10 0 -21q-8 -9 -16 -6q4 -9 -3 -17v-1l-2 -4q-1 -1 -1 -2q-1 -2 -1 -3q-1 -2 -2.5 -5.5t-2.5 -5.5
l-3 -9h2q1 1 3.5 2.5t3.5 1.5q13 6 16 9q37 27 61 73q5 9 10 22q1 2 4 10l1 2q1 1 1 2.5t1 2.5q1 3 2.5 9.5t1.5 9.5v3h1v2v0v2q1 29 -16.5 37t-38.5 5q-5 0 -7 -1h-1h-1l-2 -1q-26 -6 -64 -35q-36 -28 -71 -69q-37 -42 -52 -85q-7 -22 -9 -48q0 -8 1 -12v-6v-1q0 -1 1 -2
q0 -4 2 -10q0 -1 2 -5q1 -1 1 -3q2 -2 2 -4l2 -2l6 -6l1 -1l1 -1h2t1 -1l2 -1h4q1 -1 4 -1h4h6q2 1 5 1t5 1q11 3 20 7q40 16 82 49q11 10 18.5 -2.5t-4.5 -21.5l-22 -17q-15 -11 -49 -29q-31 -14 -52 -18q-30 -5 -49 12q-18 15 -21 43q-17 99 92 212q46 46 91 72
q33 20 64 17h4q7 0 13 -3q36 -9 47 -41v-1q1 -2 1 -3q2 -8 2 -12v-1zM-43 118zM58 192zM90 215q0 1 4 5.5t6 7.5l-1 -1q-2 -1 -6 -5q-1 -1 -4 -3t-4 -3l-2 -2l-3 -3q-2 -2 -6 -7.5t-5 -6.5l-1 -1q1 0 2 1t4 3q6 4 10 8v1l2 2zM103 181zM103 181z" />
    <glyph glyph-name="A" unicode="A" horiz-adv-x="475" 
d="M678 733q9 -9 2 -18l-144 -198l-98 -143l-4 -5l-7 -10l-25 -37l-5.5 -8t-4.5 -7l-3 -5q-7 -10 -8 -11l-5 -8q23 3 75 7q2 0 12 0.5t16 0.5v-1q1 -10 -1.5 -15.5t-5.5 -6.5l-3 -1l-27 -3l-34 -4q-38 -6 -54 -9l-6 -9l-61 -90l-125 -186q-2 -4 -7.5 -12t-8.5 -12l-5 -7
q-1 -2 -5 -8l-1 -2l-53 -81q-7 -12 -20 -6q-5 2 -7 8t1 11q17 27 20 31q18 30 39 60l29 44q10 13 17 26l150 222l3 4q0 1 1 1l-9 -2q-73 -15 -131 -32q-64 -18 -190 -60q-2 -1 -6.5 -2.5t-6.5 -2.5l-211 -173q-178 -147 -220 -184q-11 -10 -21 0q-10 12 0 21q18 16 27 23
l221 184l125 102q-100 -34 -149 -52q-125 -45 -229 -92q-59 -27 -112 -55l-54 -30q-4 -3 -13 -8.5l-14 -8.5q-7 -4 -13 -8q-1 0 -1 -0.5t-1 -0.5q0 -5 -4 -11q-7 -8 -17.5 -4.5t-12.5 13.5q-3 12 21 29q4 2 29 17l58 33q68 37 119 59q103 48 251 100q97 36 206 72l14 11l3 3
l2 2q1 0 3 2q1 0 1 0.5t1 0.5q1 1 6 5v1l66 54q2 1 4 3t9 7.5t10 8.5q1 0 3 2l2 2h1l3 3q2 1 4 3l128 105l224 185l109 89q59 47 110 76q11 5 18 -2zM399 370q145 211 208 296q-20 -14 -65 -51l-110 -90l-224 -184l-68 -56l-72 -60l-33 -27q8 3 25 8.5l26 8.5q163 50 246 62
q2 1 5 1l4 6q1 1 1 2q1 0 1 1l1 1l14 20q28 42 31 46q1 1 4.5 7t5.5 9z" />
    <glyph glyph-name="B" unicode="B" horiz-adv-x="544" 
d="M545 291q8 -20 -1 -26l-147 -61q-1 -9 -11 -38q-31 -81 -119 -171q-82 -80 -173 -142q-54 -37 -95 -59q-54 -31 -97 -27q-24 2 -40 18q-18 17 -26 42q-16 45 3 98q31 84 153 149q91 48 214 93l166 58v1v20q0 3 -1 5v4q-2 6 -2 8l-2 4q0 1 -1 3t-3 4q-1 1 -1 2q-1 3 -4 4
l-2 2q-2 2 -8 4q-9 4 -21 4q-19 0 -51 -4q-87 -15 -195 -80q-11 -7 -19.5 4t1.5 19q87 77 105 94q108 99 178 178q44 50 77 96l36 51q9 14 13 25q1 2 1 5q-73 -45 -146 -103q-71 -57 -135 -120q-73 -69 -123 -126q-14 -16 -21 -23q-1 -2 -3 -4l-181 -257q-9 -12 -20 -6
q-12 7 -6 20l11 20q44 78 98 148q28 39 78 96l94 139l173 263q8 13 20 6q5 -3 6.5 -9t-1.5 -11l-97 -149l-71 -108q26 26 39 38q69 66 138 119q71 55 140 96q3 2 7 3.5t10 2.5t11 -2t7 -10q9 -29 -15 -64q-26 -40 -41 -59q-69 -94 -171 -195q-51 -51 -105 -99q25 11 49 18
q26 8 54 12q36 6 56 5q32 0 51 -19q17 -15 20 -39q2 -8 2 -25q22 8 25 9q62 22 106 40q8 4 13 6zM271 42q70 77 93 150l-179 -64q-116 -44 -199 -91q-111 -63 -125 -145q-2 -7 -2 -23v-11v-4q1 -1 1 -3q1 -6 5 -18l1 -4q0 -1 1 -1l1 -2l4 -8q0 -1 1 -2.5t2 -2.5l1 -1
q3 -4 7 -7q0 -1 0.5 -1t0.5 -1q25 -20 81 5q5 4 13 7q22 12 47 28q47 29 90 60q94 72 156 139z" />
    <glyph glyph-name="C" unicode="C" horiz-adv-x="436" 
d="M433 653q1 4 1 10q2 13 0 24q-1 1 -1 2q-1 2 -1 3v2l-1 2l-3 6l-1 1l-2 2l-3 3h-1l-1 1q-11 8 -30 6h-1h-1h-1q-1 0 -3 -1l-5 -1q-2 0 -2 -1q-9 -2 -21 -9q-33 -20 -76 -70q-29 -33 -67 -85q-66 -87 -132 -185q-68 -100 -122 -189q-82 -138 -110 -195q-26 -52 -41 -100
q-6 -20 -13 -52q-3 -18 -2 -22q0 -3 1 -5q2 -4 4 -7h1v-1q1 0 1 -0.5t1 -0.5t1 -1q21 -9 74 28l89 65l78 60q155 120 249 205q49 43 102 98l19.5 19.5t23.5 25.5l1 -1q13 -13 3 -29q-4 -6 -9.5 -12.5t-13.5 -14t-11 -11.5q-49 -49 -75 -73q-100 -96 -223 -192l-33 -27
l-98 -74q-78 -59 -96 -70q-37 -25 -60 -28q-32 -2 -47 15t-9 53q14 86 82 213q44 81 118 200q62 99 129 195q76 111 139 189q48 58 77 83q50 42 94 37q29 -4 42 -20q6 -6 7 -10l1 -1q1 -1 1 -2q20 -41 -6 -97q-14 -32 -57 -79q-4 -5 -10 -5t-10 5q-5 4 -5 10t5 10
q46 51 56 85q2 5 4 13z" />
    <glyph glyph-name="D" unicode="D" horiz-adv-x="442" 
d="M489 713q12 -10 12.5 -31t-3.5 -35q-10 -69 -52 -152q-59 -118 -166 -252q94 46 165 48q0 -1 0.5 -3t1.5 -7t-1 -8q-2 -6 -36 -15q-67 -17 -166 -66q-8 -4 -11 -7q-66 -77 -170 -188l-116 -123l-14.5 -16l-17 -18l-14.5 -15q-55 -53 -87 -54q-14 0 -21 10.5t-6.5 19.5
t0.5 12v5q4 32 25 71q2 3 5.5 9t5.5 9q28 38 50 61l27 26q7 7 10 9l3 3q48 43 125 95q65 43 136 85q6 4 40 22q58 70 84 106q47 63 83 123q46 77 68 137q14 40 19 72q4 22 4 33v4l-1 2q0 3 -1 5l-1 1v1v0v0h-1q-1 0 -3.5 -1t-3.5 -2l-15 -9q-22 -12 -32 -19q-40 -28 -59 -44
q-75 -62 -143 -134v0l-24 -26l-2 -1q-1 -2 -3 -5t-4 -5l-100 -118.5l-80 -99.5l-28 -36l-42 -57l-103 -154q-2 -2 -11 -16q-8 -12 -20 -5q-5 3 -7 9t2 11l109 163l193 288l195 290q9 11 20 5q5 -3 7 -9t-2 -11l-109 -163l-69 -104l50 56q49 53 107 105q70 63 124 96
q22 14 33 19q25 13 41 -2zM104 85l52 56q-18 -10 -26 -15q-70 -43 -127 -86q-63 -44 -112 -96q-28 -29 -45 -56q-17 -25 -23 -45q-9 -25 -6 -44q3 1 6 2.5t5 1.5q21 11 53 43z" />
    <glyph glyph-name="E" unicode="E" horiz-adv-x="428" 
d="M211 51l-94 -92q-67 -63 -119 -103q-42 -32 -64 -47q-48 -30 -69 -38q-48 -21 -71 9q-19 25 -6 69q9 28 32 66q26 40 40 59q52 72 108 122q25 22 129 100l61 47q-45 -12 -83 -13q-39 0 -54 10q-26 15 -22 53q5 52 51 119q32 47 82 106q33 40 86 97l46 47q30 30 47 42
q59 47 105 28q27 -11 35 -40q6 -24 -3 -59q-6 -24 -22 -58q-10 -26 -29 -58q-31 -55 -72 -106q-11 -12 -21 0q-9 9 1 20q1 1 7 9t9 13q34 45 63 100q9 17 23 51q5 11 10 28q2 4 4 14q1 3 1 6t1 5q1 4 1 13v6v1q0 1 -1 2q0 5 -1 7v1q-1 1 -1 2q-1 1 -2 2.5t-1 2.5t-1 2
q-1 0 -2 2l-1 2l-1 1q-1 0 -1 1q-1 0 -5 2l-1 1h-1q-1 0 -2.5 0.5t-2.5 1.5h-3h-1l-1 1h-1h-2h-5q-3 0 -4 -1h-2q-3 0 -4 -1q-7 0 -11 -3q-5 -1 -10 -4l-12 -6q-21 -13 -43 -35q-31 -28 -85 -87q-46 -51 -79 -92q-48 -59 -73 -99q-1 -3 -3.5 -6.5l-4.5 -6.5t-4 -7t-3 -7
q-20 -35 -22 -60q0 -17 4 -23q4 -4 15 -9q13 -3 30 -1q10 0 30 2q45 6 88 24q1 0 1 1q3 0 5 2q25 8 29 -5q5 -12 -25 -39q-26 -23 -55 -46l-65 -48q-86 -65 -120 -98q-52 -53 -94 -115q-26 -37 -38 -60q-9 -15 -14 -30q-6 -15 -6 -29v-6q0 -4 1 -7l1 -2q0 -1 1 -2q0 -1 2 -3
q0 -1 1 -1l1 -2l2 -1l2 -1h1l2 -1h1h1h4h5h1q23 4 63 30q58 35 120 89l71 63.5l83.5 80.5l67.5 66l185 169q1 -1 2.5 -3t4.5 -8t-1 -9q-4 -7 -11 -12l-54 -55l-74 -71l-63 -62zM421 689zM39 263zM-188 -188zM-183 -201z" />
    <glyph glyph-name="F" unicode="F" horiz-adv-x="243" 
d="M770 727q5 1 9.5 -4t4.5 -10q0 -13 -14 -15l-155 -18q-93 -11 -277 -31q-43 -4 -68 -7l-17 -26l-145 -217l-91 -133q22 2 64 6.5t64 6.5q12 1 34 4t34 4q5 0 16 1.5t17 2.5q2 -2 2 -6q0 -15 -5 -17l-248 -34l-35 -51l-151 -212l-76 -105l-40 -48q-31 -31 -44 -40
q-31 -21 -53 -8t-16 50q4 25 22 56q12 25 32 51q8 12 20 6q5 -3 6.5 -9t-1.5 -11q-3 -4 -8.5 -12t-8.5 -12q-21 -37 -26 -49q-6 -18 -8 -27v-1v-2v-5v-3v-1l1 -3q0 -1 1 -2l1 -1h1v0q1 0 1 -1h1h2q0 1 2 1t3 1h1l2 1q3 1 9 5q14 10 39 37q36 39 74 93l73 103l138 196l-25 -3
q-6 0 -10.5 5t-4.5 10q0 13 15 15q7 0 23 1.5t24 2.5l127 186l127 191q-122 -13 -172 -17q-6 -1 -10.5 4t-4.5 11q0 14 15 14l156 15q93 9 277 29z" />
    <glyph glyph-name="G" unicode="G" horiz-adv-x="425" 
d="M518 721q18 -22 3 -77q-20 -78 -60 -156q-8 -13 -20 -5q-12 7 -6 20q9 17 17 34q13 28 28 72q7 21 11 37q8 26 9 38q0 7 -3 16l-1 1v2l-2 2l-3 3v1l-4 2q-1 0 -1 0.5t-1 0.5h-1v1v-1q-4 2 -6 2q-1 1 -4 1h-2l-1 1h-4q-8 0 -12 -1h-1h-4q-1 -1 -3 -1t-3 -1q-11 -3 -14 -4
q-57 -20 -124 -78q-51 -45 -104 -112q-41 -49 -93 -118q-48 -64 -87 -127q-28 -50 -37 -69q-1 -3 -4 -8.5t-4 -7.5q0 -1 -1 -2q0 -2 -1 -3t-1 -3t-1 -3q0 -1 -0.5 -4t-1.5 -4q0 -3 -1 -5v-7v-3v-2q1 -2 1 -5h1q0 -1 1 -2l1 -1l1 -1q1 -1 3 -1h2l3 1q1 0 3 1t3 1q10 6 16 10
l71 46l288 188q8 7 17 -2q8 -8 3 -18l-20 -36l-42 -72q-1 -3 -13 -21v0q-2 -2 -2 -3q48 25 119 53q1 -2 1 -5q2 -12 -2 -16l-152 -83l-5.5 -8t-4.5 -6v0l-3 -3l-1 -2l-1 -2l-2 -2v-1h-1q-41 -59 -81 -107q-85 -104 -223 -246q-1 -1 -3 -3.5t-3 -3.5q-51 -45 -78 -42
q-2 0 -6 2q-3 0 -5 2q-8 4 -13 14q-8 17 2 47q10 25 19 39q16 28 48 67q93 113 238 214q50 36 106 68q39 58 75 120l-291 -190q-4 -2 -11 -7l-13 -9t-12 -7q-25 -12 -43 -3q-28 15 -18 61q4 15 12 31q9 19 19 38q23 42 41 70q29 46 95 132q60 78 102 126q57 65 116 109
q32 25 68 41q40 19 67 19q37 0 55 -24zM181 112l18 23t14 18q-28 -17 -72 -48q-70 -52 -117 -97q-57 -52 -105 -114q-28 -36 -41 -65q-4 -6 -7 -18v-2q-3 -10 -1 -14q4 -4 10.5 -2.5t16.5 9t16 12.5t9 8l47 48q133 140 212 242z" />
    <glyph glyph-name="H" unicode="H" horiz-adv-x="307" 
d="M556 707q4 -35 -37 -91q-26 -35 -67 -76q-31 -28 -79 -64l-24.5 -18t-19.5 -14q-5 -4 -17 -12q-4 -8 -14 -24l-27 -48l-112 -195l-110 -198l-107 -197q-5 -14 -20 -6q-12 7 -5 20l26 50l111 201l112 200l87 154l-34.5 -22.5t-27.5 -18.5l-93 -66q-90 -66 -157 -131
l-120 -183q-9 -13 -20 -8q-16 9 3 56q2 6 4 10q16 40 57 86q23 27 54 58l169 256l164 248q-46 -21 -95 -52q-12 -9 -20 5q-7 12 5 20q72 45 145 74q9 3 15.5 -5.5t1.5 -16.5l-107 -161l-190 -288l-3 -3q35 28 107 80l93 64l23 16l23 16l22 15q3 2 9 7t9 7l15 28q25 40 29 46
q32 46 66 90q35 44 72 80q16 16 24 23q44 37 57 1q1 -2 2 -6.5t1 -6.5zM527 693q0 9 -1 14q-1 -3 -4 -4q-48 -44 -75 -76q-34 -39 -64 -82q-24 -34 -35 -52q65 49 102 87q35 35 59 73q15 22 18 40z" />
    <glyph glyph-name="I" unicode="I" horiz-adv-x="115" 
d="M270 735q8 3 14.5 -3.5t3.5 -14.5q-12 -28 -19 -42q-21 -41 -45 -81q-6 -11 -47 -80q-45 -76 -98 -155l-105 -156l-1 -2l-8 -11.5t-9 -13.5q5 5 11 8q30 25 73 56q24 18 37 26q12 8 19 12l20 13q3 -6 4 -14q3 -12 -16 -24l-67 -50l-44 -35q-15 -11 -25 -20
q-60 -46 -69 -55l-30 -44l-163 -240q0 -1 -1 -2.5t-2 -2.5q-33 -47 -46 -24q-2 6 -2 10q-1 14 4 33q4 20 12 40q15 40 38 77q35 57 117 129l50 43q136 196 201 297q66 104 97 157l45 78q18 32 26 49q-22 -11 -53 -31q-43 -29 -75 -62q-6 -6 -14 -3t-10 10t3 14
q74 74 174 114zM-238 -55l47 69q-48 -47 -73 -86q-23 -37 -37 -73l-3 -9q3 4 7.5 11l6.5 10z" />
    <glyph glyph-name="J" unicode="J" horiz-adv-x="269" 
d="M437 731q6 -6 3 -15v-1v-1q-1 0 -1 -1q-1 -1 -2.5 -4.5t-3 -6.5l-2.5 -5l-18 -30l-117 -192l-121 -191q-1 -2 -3.5 -6t-4.5 -6l-1 -1q0 -2 -2 -4l106 24v0q0 -1 2 -6.5t1.5 -10t-5.5 -7.5l-126 -33l-4 -6l1 1q-4 -5 -10 -15l-1 -1l-80 -118l-134 -181q-23 -30 -71 -88
l-23 -27t-24 -19.5t-33 -12.5q-23 -2 -44.5 10.5t-34.5 33.5q-24 38 -17 99q13 87 107 174q76 71 179 119q49 24 104 39q17 5 51 13h2q2 1 6 1l7 2l5 7q38 58 56 88l118 188l58 95q5 7 34 55l-52 -18q-9 -4 -20 -7q-16 -6 -20 -7q-13 -5 -39 -13q-35 -12 -80 -25
q-59 -15 -83 -19q-59 -10 -88 -3q-15 4 -11 18q5 13 18 11q30 -7 88 5q62 13 158 44q7 3 20 7t19 7t19.5 7t19.5 6q9 4 35.5 13.5t40.5 15.5q3 2 9 2h1q4 -1 8 -4zM96 218l4 5l-9 -2q-31 -7 -63 -18q-46 -17 -95 -42q-99 -53 -164 -122q-81 -89 -74 -170q1 -19 12 -40
q3 -5 12 -16q2 -1 5 -4h1l1 -1q4 -4 8 -5q4 -2 5 -3q2 -1 3 -1q6 -2 10 -2q2 0 3 -1h5h1l1 1h1h4q5 1 18 9q1 1 3.5 3t4.5 4l7 7q5 6 11 12.5t13 15l11 13.5q2 2 14.5 18l19.5 25l66 85l128 179z" />
    <glyph glyph-name="K" unicode="K" horiz-adv-x="322" 
d="M671 731q6 -11 -5 -20q-10 -6 -23 -16l-178 -133q-118 -94 -175 -143l-168 -150l-161 -157l-17 -17q0 -1 -1 -1l-1 -2l-9 -28q-42 -150 -42 -230v-30q1 -2 1 -7v-1v-2q1 -1 1 -3q4 -10 18 2q5 5 7 8q24 25 68 77q66 81 126 163q83 108 130 164q52 58 80 86q3 -4 4 -4
q6 -7 4 -19l-3 -6q0 -4 -39 -46q-12 -14 -48 -59l-102 -130l-134 -173l-26 -31l-36 -40q-26 -28 -47 -27q-16 2 -26 16q-6 12 -6 27q-3 27 -1 60q5 77 35 185l1 3l-34 -38q-17 -17 -21 -20q-13 -10 -19 -7q-13 6 -1 30q3 6 26 42l64 104l66 104l68 101l175 254q8 12 20 5
q13 -9 5 -20l-99 -142l-171 -255l-60 -96l39 40l164 157q73 69 170 151q93 79 177 143l184 136q5 4 11 2t9 -7z" />
    <glyph glyph-name="L" unicode="L" horiz-adv-x="248" 
d="M253 265q-7 -10 -136 -148.5t-183 -191.5l-49 -48q-53 -50 -95 -84q-16 -14 -25 -20q-16 -10 -28 -10q-15 2 -21 14q-7 10 -3 35q3 17 15 44q14 34 58 109q29 49 73 116l58 87l97 146l146 212l152 210q9 11 20 5q5 -3 6.5 -9t-1.5 -11l-37 -51l-147 -206l-143 -210
l-76 -114l-62 -93q-40 -61 -72 -115q-3 -5 -14 -25t-16 -31l-13 -25q0 -2 -2 -6q-1 -1 -1 -3q0 -1 -5 -11q-2 -6 -6 -20q-2 -4 -2 -8v-2q0 -1 -0.5 -1t-0.5 -1v-6h2q0 1 2 1l10 7l23 18l46 41l91 86l177 178l157 167q1 -1 3 -3.5t4.5 -10t-2.5 -12.5zM-247 -159l1 1z
M-262 -208h1h-1zM-259 -209z" />
    <glyph glyph-name="M" unicode="M" horiz-adv-x="602" 
d="M727 720q7 -13 -3 -43q-6 -21 -17 -42q-31 -58 -78 -125q-48 -73 -86 -124l-181 -247q-109 -149 -170 -251q-23 -39 -36 -66q0 -1 -2 -4t-2 -5q0 -1 -1 -1q1 0 1 1q0 -1 -0.5 -1t-0.5 -1q-2 -6 -3 -10q-1 -1 -1 -5v-1v-1h3h1h1l2 1h1h1q2 2 4 3q1 0 1 1l2 1q2 1 3.5 3
t3.5 4l3 3l48 51l31.5 35l36 42l30.5 36l103 116l106 118l51 58q4 4 11.5 12.5t11.5 12.5q1 -2 2.5 -4t4.5 -9t-1 -10q-4 -7 -94 -113.5l-121 -141.5l-81 -92q-83 -95 -100 -113q-8 -7 -22 -23q-14 -14 -28 -18q-18 -5 -31 2q-11 7 -13 23q-2 14 15 50q18 36 36 65
q62 103 173 254l183 249l87 126q56 85 77 128q3 7 9 23l-22 -21l-112 -103q-132 -123 -216 -212q-97 -103 -199 -232q-95 -123 -170 -241q-3 -3 -7 -11q-6 -6 -11 -7q-6 0 -9 2q-5 3 -6 7q-3 7 0 13q31 63 99 170q37 56 208 296l99 146q16 24 46 74q10 19 19 38q4 8 6 11
q-8 -6 -23 -21l-52 -48q-64 -61 -152 -163l-145 -175l-134 -176l-63 -85q-2 -4 -3 -5l-11 -16q-43 -58 -56 -52q-17 7 3 62t64 128l102 157l109 162l217 326q8 12 20 5q12 -8 5 -20l-120 -182l-216 -322q-57 -83 -101 -156q-22 -38 -39 -73q5 6 13 18l68 92q66 89 142 182
l147 177q90 102 160 165l39 37q1 1 10.5 8t14.5 11t11 5q4 2 8 2q19 0 17 -24q0 -12 -7 -26q-6 -15 -22 -45q-28 -50 -52 -86q-44 -69 -161 -232q86 99 155 170q90 91 217 208l79 73q26 22 39 26q8 2 11 2q6 0 10 -6zM429 623h1h-1zM145 -206zM701 704v-1v1z" />
    <glyph glyph-name="N" unicode="N" horiz-adv-x="389" 
d="M514 720q6 -11 -2 -43q-8 -23 -18 -42q-23 -45 -77 -125l-86 -124l-182 -247q-109 -149 -170 -251q-23 -39 -36 -66q-2 -6 -4 -9v-1v1q0 -1 -1 -2q-2 -6 -3 -10l-1 -2v-3v-1v-1h4h1q1 0 1 0.5t1 0.5h1h1l2 2t2 1t2 1l1 1q2 1 3.5 3t3.5 4l3 3l49 51l97 113l104 116
l105 118l51 58q4 4 11.5 12.5t11.5 12.5v-1q12 -12 3 -25q-8 -12 -75.5 -93.5t-104.5 -122.5q-2 -2 -5.5 -6.5t-5.5 -6.5l-102 -115q-64 -76 -100 -113q-15 -15 -22 -23q-14 -14 -28 -18q-17 -6 -31 2q-11 7 -13 23q-2 14 15 50q8 16 36 65q62 103 173 254l183 249l87 126
q51 74 77 128q6 10 9 23q-14 -14 -22 -21l-112 -103q-132 -123 -216 -212q-108 -116 -198 -232l-52 -68l-46 -64l-69 -99l-1 -1q-1 -1 -1 -2q-17 -22 -29 -15q-15 8 6 41l30 45l42 64l66 98l75 112l71 106l53 79l21 31l42 62l44 65l91 138q8 12 20 5q12 -8 5 -20l-114 -173
l-176 -263q61 72 143 157q90 91 217 208l79 73q25 21 39 26q8 2 11 2q6 0 10 -6z" />
    <glyph glyph-name="O" unicode="O" horiz-adv-x="485" 
d="M485 264q-17 -18 -48 -44.5t-93 -63.5t-114 -44l-1 -2l-1 -2q-41 -58 -46 -64l-24 -33l-27 -36l-30 -38q-4 -6 -9.5 -12l-12 -13.5t-9.5 -11.5l-32 -36l-32 -32q-16 -16 -31 -27q-18 -14 -28 -20q-22 -13 -37 -14q-37 -3 -56 29q-13 23 -7 77q6 46 18 89q23 88 57 169
q34 79 78 157q74 129 194 284q9 13 21 5q13 -7 4 -20l-49 -64q-108 -145 -177 -279q-38 -73 -67 -154q-10 -27 -26 -81q-13 -46 -20 -82q-4 -28 -5 -42q-2 -22 0 -33q7 -21 24 -25q15 -4 36 8q12 6 30 21q17 14 32 29q17 17 33 36q6 6 34 39l18 23t14 18l30 39q8 12 26 36
q14 20 20 30l15 21q1 2 3.5 5.5t3.5 5.5q-3 0 -7 1t-7 2q-37 14 -53 51q-14 33 -12 82q3 79 41 160q31 66 91 143q44 55 106 115q67 67 118 75q42 5 59 -21q13 -23 4 -58q-9 -36 -28 -81q-19 -47 -36 -82q-39 -78 -84 -153l-66 -105q-21 -32 -65 -94q109 32 230 144
q16 -9 0 -27zM214 140q101 139 178 273q46 83 76 150q16 37 30 78q4 14 6 22q2 4 2 6q1 2 1 4q1 5 1 14v1v3v5q-1 1 -1 4l-1 1q0 1 -2 3v1l-1 1l-2 2l-2 2l-2 1q-1 0 -3 1h-1h-1l-2 1h-9q-2 0 -3 -1h-3q-1 0 -3.5 -0.5t-3.5 -0.5q-2 -1 -7 -2.5t-8 -2.5h-1v-1q-2 0 -4 -2
q-3 -1 -7 -3q-2 -1 -14 -8q-11 -7 -25 -19q-9 -7 -25 -23q-16 -15 -46 -47q-51 -51 -102 -125q-50 -74 -70 -141q-11 -36 -14 -76q-4 -44 5 -73q4 -15 15 -27l6 -6q2 -2 5 -4q1 -1 7 -4l4 -2l1 -1q12 -6 26 -4z" />
    <glyph glyph-name="P" unicode="P" horiz-adv-x="418" 
d="M518 718q4 -10 4 -32q0 -12 -4 -36q-7 -28 -25 -67q-16 -34 -33 -62q-67 -114 -177 -227q-32 -34 -76 -74q-5 -4 -21 -18l232 89q17 -11 -3 -23q-9 -6 -82.5 -37l-142.5 -59l-70 -29q-3 -2 -6 -5l-46 -39l-56 -46q-2 -2 -10 -8.5l-11 -9t-11.5 -8t-13 -4.5t-13.5 1
q-15 5 -17 20.5t6 27.5q10 16 34 33q22 15 79 43q2 1 5.5 2.5t4.5 2.5v0q24 11 46 20l2 2q120 103 200 195q99 112 154 225q16 36 22 60q4 22 4 31q0 12 -1 15v2q0 3 -1 4q0 1 -1 2v1q-1 0 -1 1q-7 0 -13 -3q-7 -2 -28 -14q-24 -14 -57 -37q-51 -37 -104 -85
q-58 -54 -97 -96l-44 -48q-1 -1 -3 -4l-56 -91l-106 -183l-69 -126l-111 -211q-7 -17 -11 -21q-4 -6 -8 -10q-15 -13 -25 2h-1q0 1 -1 2q-3 8 -1 28q5 33 32 102l30 66q32 69 66 127q70 124 159 238q41 54 83 100l63 101l27 46q8 14 12 22q10 14 14 22l51 93q5 13 20 6
q10 -7 5 -20l-12 -24l-27 -47q-4 -7 -12 -23q-2 -4 -6.5 -11l-6.5 -10l-30 -52q6 6 10 9q58 57 106 94q67 53 119 78q21 12 37 8q17 -3 24 -21zM-31 188l33 57q-68 -97 -128 -213q-31 -58 -60 -127q-4 -7 -10 -23l63 120zM489 711zM-36 50zM-35 50v1v-1v0zM5 85q4 2 9.5 7
t6.5 6q-12 -6 -17 -10q-7 -4 -19 -12l-3 -3q0 -1 -2 -2l-2 -1q-2 -3 -6 -7l-2 -2q-2 -2 -2 -3q-2 -2 -2 -4l2 1l2 1q3 2 9 8q18 14 26 21z" />
    <glyph glyph-name="Q" unicode="Q" horiz-adv-x="367" 
d="M442 711zM77 63q-3 -19 -3 -39q-3 -36 2 -76q6 -31 7 -34t2.5 -8.5t2.5 -8.5q2 -4 3 -7l1 -1v-2l1 -2q8 -18 13 -26q1 -2 4 -6.5t5 -6.5q1 -2 2 -2q0 -1 1 -2q3 -3 4 -5q20 -23 44 -35q3 -1 7 -3l2 -1h1q2 -1 3 -1q3 -1 13 -4q1 -1 4 -1t4 -1h3q1 -1 2 -1h2h3q1 0 3 -0.5
t4 -0.5h15q1 0 3 0.5t4 0.5h2h3l27 6q2 1 7 2.5t8 2.5l6 3q1 0 2 1l1 1h2q9 4 27 14q25 15 48 37q27 27 40 47q8 11 20 5q5 -3 6.5 -9t-1.5 -11q-20 -30 -43 -51q-32 -31 -69.5 -51t-81.5 -26t-85 13q-57 25 -88 90q-28 59 -26 150q2 46 9 93q-27 -3 -48 10q-28 21 -33 59
q-4 32 13 77q21 62 64 146q49 95 165 273q9 12 20 6q14 -8 6 -20q-28 -42 -41 -63q-99 -154 -151 -264q-17 -38 -29 -68q-17 -49 -18 -71v-10v-4l1 -1q0 -2 1.5 -7.5t1.5 -6.5l1 -2q0 -1 1 -1l1 -2l3 -6q1 -1 1 -2l2 -2l5 -5q1 0 1 -1l2 -1l4 -2q6 -2 7 -2l3 -1h3q10 0 14 1
q1 0 2.5 0.5t2.5 0.5q2 14 4 21q11 61 34 132q48 138 122 247q37 55 87 110q26 28 49 48q32 31 59 41q42 15 60 -17q11 -22 0 -71q-15 -69 -53 -143q-35 -69 -81 -133q-49 -72 -91 -119q-51 -59 -107 -102q-34 -25 -57 -35q-2 -8 -4 -22v-2v-1q0 -2 -1 -4v-7q-2 -12 -2 -18z
M1 178zM27 139zM438 712zM106 221q-7 -25 -16 -69q8 5 37 26q30 23 52 45q45 44 92 104q44 60 82 119q44 74 67 130q12 29 22 68q4 14 7 35v1v1q0 3 1 5v7v3l-1 3q0 4 -1 6q0 1 -1 1q0 1 -1 2l-2 2q-1 1 -2 1v0v1v-1q-1 1 -4 1h-4h-2q-1 0 -3 -0.5t-3 -0.5q-1 -1 -3 -1
t-3 -1l-1 -1l-2 -1q-1 -1 -2 -1q-17 -9 -49 -39q-91 -84 -161 -205q-63 -110 -99 -241z" />
    <glyph glyph-name="R" unicode="R" horiz-adv-x="442" 
d="M194 248q-20 -15 -62 -43q-9 -5 -20 -13l-27 -17v-28v-38v0v-51q0 -19 -0.5 -56.5t-0.5 -55.5q0 -55 3 -110q3 -23 3 -25l3 -12l349 492q1 -1 3 -2t4 -5t0 -7q-8 -20 -266 -398q-60 -86 -66 -94t-7 -9q-10 -12 -22 -12q-2 0 -4 1v0q-2 0 -3 1q-9 4 -16 24q-6 22 -8 55
q-2 38 -2 115q0 19 0.5 57.5t0.5 57.5v58q-1 9 -1 28v12q-3 16 15 27h-1h1l1 1l8 5l1 1q2 1 11 7q128 80 233 175q59 51 103 99q25 28 39 54q7 11 13 27q1 5 4 17q0 1 0.5 3.5t1.5 3.5v1v3v7v1q0 1 -1 3l-1 3q0 2 -1 2l-1 2l-1 1q-1 0 -1 1h-1h-2h-4q-4 0 -8 -2
q-5 -2 -31 -15l-30 -18q-49 -31 -108 -87q-95 -90 -205 -224l-63 -77q-2 -3 -68 -88q-2 -3 -5 -7t-12 -14.5t-17.5 -18t-17.5 -13.5t-16 -3.5t-10 13.5q-6 22 11 55v1q5 10 45 76q30 49 176 266l183 269q8 12 20 5q13 -9 5 -20l-102 -150l-179 -264l-85 -132
q-33 -55 -38 -66l-3 -6q148 187 188 233q68 80 105 118q61 65 110 106q66 55 123 82q24 12 38 11q22 -3 30 -20q13 -22 0 -64q-17 -52 -81 -118q-53 -54 -112 -103q-57 -49 -121 -94z" />
    <glyph glyph-name="S" unicode="S" horiz-adv-x="287" 
d="M289 707zM336 686q1 1 1 3q0 3 1 5v4q-1 1 -1 4l-1 3l-1 2h-1l-1 2l-1 1q-1 1 -2 1l-1 1q0 1 -4 1l-3 1h-6q-9 0 -13 -1h-5q-1 -1 -3 -1t-3 -1q-19 -5 -25 -7q-19 -6 -47 -22q-26 -18 -42 -31q-45 -40 -66 -88q-8 -18 -11 -28q-5 -15 -6 -25q-6 -27 -6 -54q0 -7 2 -25
t4 -26q1 -7 12 -53q20 -71 25 -105q1 -8 1 -23l29 13l125 54q8 -14 0 -19q0 -1 -3.5 -2.5l-10 -4.5t-11.5 -6l-129 -66q-3 -32 -12 -61q-30 -105 -132 -208q-36 -37 -94 -83q-60 -47 -105 -66q-64 -28 -109 -8q-25 11 -38 32q-13 19 -13 52q3 55 57 109q37 37 101 79
q96 63 229 130l87 42q0 16 -1 24q-3 33 -22 102.5t-21 108.5q-2 59 19 113q23 55 66 99q42 42 92 64q25 12 51 18q36 8 56 -2q17 -8 21 -25.5t-1 -34.5t-14 -34q-30 -60 -69 -114q-5 -8 -13 -7.5t-11 7t1 14.5l35 55l17 29l9 15q2 5 5 11q8 16 11 25q0 1 0.5 3t0.5 3v1z
M90 129q9 24 12 50l-129 -64q-55 -29 -114 -64q-65 -39 -107 -72q-59 -44 -80 -83l-2.5 -5t-2.5 -5.5t-1 -4.5q-1 -3 -3 -7q0 -3 -1 -4v-1q-2 -10 -2 -14v-7v-2v-2q0 -5 2 -13l1 -3q1 -4 2 -6l3 -6q1 -1 1 -2v0q2 -3 7 -8q2 -2 3 -2v-1l2 -2t2 -1q6 -4 9 -5l1 -1h1h1
q1 -1 2 -1q1 -1 2.5 -1t2.5 -1q8 -2 11 -2h2q2 0 3 -1h6q2 0 6 0.5t7 0.5h2q1 0 1 0.5t1 0.5q5 0 7 1q8 2 13 3q44 14 102 57q111 84 172 171q36 51 55 107z" />
    <glyph glyph-name="T" unicode="T" horiz-adv-x="260" 
d="M764 740q11 -11 0 -20q-59 -48 -179 -79q-85 -23 -182 -29q-34 -2 -101 -2l-108 -169l-125 -186q-14 -20 -21 -31q6 3 18 7q99 35 194 60q13 -15 -1 -20q-2 -1 -116 -42t-124 -47l-72 -105q-80 -112 -124 -165l-68 -77l-37 -37q-30 -28 -40 -33q-25 -13 -47 -4
q-14 7 -26 30q-7 20 -7 42q-2 23 3 45q13 77 91 144q71 63 175 120q66 37 133 63l81 120l121 181l66 104q-28 1 -56 0q-98 0 -169 -19q-45 -14 -72 -29q-16 -8 -34 -21q-19 -15 -26 -26q-6 -13 -20 -5q-12 7 -5 20q7 14 35 35q17 13 38 24q42 22 86 32l2 1q20 5 60 11
q20 3 60 5t60 2q10 0 30 -0.5t30 -0.5h62q31 0 62 3q91 6 179 30q53 15 84 29q42 17 69 39q11 10 21 0zM-42 146q4 4 10 14q-64 -29 -124 -65q-45 -26 -85 -56q-50 -38 -73 -62q-3 -3 -7.5 -8t-6.5 -8q-2 -2 -11 -15q-10 -13 -20 -34l-1 -1v-2t-1 -2l-1 -2l-3 -9
q-4 -11 -5 -19q0 -2 -0.5 -5t-1.5 -5v-3q0 -3 -1 -5v-21v-12q1 -2 1 -5v-2q1 -8 5 -17v-2l1 -1v-1l1 -2l3 -3v-1l1 -1l1 -1q2 0 2 -1v-1h1l1 -1l1 -1h2h1h1h3h1q2 0 3 1l2 1h2l2 1q1 1 2 1t2.5 1t2.5 2l3 3t4 3q13 11 37 35q63 63 130 150q48 62 115 162z" />
    <glyph glyph-name="U" unicode="U" horiz-adv-x="507" 
d="M570 627q10 -14 -21 -66q-3 -6 -11 -18l-23.5 -37l-19.5 -30q-1 -2 -3 -4t-3 -4l-70 -105q-2 -4 -6.5 -11t-7.5 -10q-1 -1 -3 -5l-6 -9l-2 -4q-2 -3 -6.5 -10.5t-8.5 -13.5q-1 0 -1 -1t-1 -2q-1 -2 -4 -6.5t-4 -6.5t-4 -6.5t-4 -6.5q-4 -8 -8 -12q-60 -102 -78 -135
l-49 -90l-27 -56q-14 -26 -21 -53q0 -1 -1 -3.5t-1 -3.5l3 3l42 44l169 191l84 96l33 39q2 -1 3.5 -2.5t4 -7.5t-4.5 -14q-15 -21 -78 -100t-103 -125q-22 -24 -32 -36q-77 -85 -88 -96q-18 -18 -22 -21q-19 -17 -33 -8q-13 7 -8 35q4 20 7 30q7 20 25 58l30 58
q36 68 81 145q46 83 101 164l82 124q2 4 7 11.5l7 10.5l-17 -22l-65 -89l-131 -180l-133 -180l-137 -177q-42 -54 -69 -76q-29 -23 -50 -19q-19 3 -31 27q-7 15 -11 48q-2 30 1 53q5 50 25 107q15 44 41 100q23 54 43 94q49 98 100 183q52 90 111 177l87 123l4 5q0 1 1 2v0
q18 24 24 33q1 2 4 5t4 5q3 4 9 4t10 -3q11 -9 4 -19l-30 -40q-63 -87 -117 -169q-66 -102 -107 -174q-55 -95 -95 -181l-41 -91q-26 -66 -36 -100q-16 -57 -13 -101q0 -27 6 -44q1 -1 1 -2v-1q2 -2 3 -4q0 -1 2 -3q1 -1 1 -2l2 -2h1q1 -1 2 -1q1 -1 2 -1h1q1 0 7 2
q1 1 4.5 3t5.5 3q3 2 8.5 7t8.5 8q6 6 34 36l66 84l132 173l129 176l129 177l32 43v1q9 11 27 35q1 1 3.5 4t3.5 5q0 1 0.5 1t0.5 1q4 4 8 10l1 1l24 27q6 7 18 19q20 14 24 14t8 -2h1z" />
    <glyph glyph-name="V" unicode="V" horiz-adv-x="440" 
d="M564 674q0 -25 -11 -60q-6 -19 -22 -55q-34 -75 -126 -203q-74 -100 -147 -188q-76 -92 -159 -177l-84 -84q-47 -45 -88 -77q-56 -45 -98 -60q-67 -25 -89 17q-17 32 16 102q20 46 54 106q39 71 127 205l139 207l139 213q9 13 20 5q5 -2 7 -8.5t-1 -11.5l-33 -50
l-135 -206l-134 -198q-75 -116 -120 -200q-18 -34 -26 -52q-16 -32 -22 -47q-1 -4 -3.5 -12t-3.5 -12v-4q-1 -2 -1 -6v-9l1 -3v-1q1 -1 1 -2q1 -1 1 -2t1 -2l2 -2l2 -2l1 -1q2 0 2 -1h1h1q1 -1 2.5 -1t2.5 -1h1h2h4h5h1h3q8 2 22 6q12 4 21 9q4 2 12 6.5t12 7.5q45 29 86 67
q64 56 164 162q69 75 151 173q67 82 137 181q86 122 115 197q12 32 16 55q3 11 1 25q-1 3 -1 4t-0.5 2.5t-0.5 2.5q0 4 -1 4q-2 2 -2 3q-1 1 -2 2.5t-1 2.5l-2 2l-2 2l-1 1h-1l-2 2h-1q-1 1 -2 1v0q-1 1 -3 1t-3 1h-2l-1 1h-7q-14 -1 -51 -14q-5 -2 -10.5 1.5t-7.5 8.5
q-3 13 11 18q36 14 56 15q30 2 48 -18q17 -19 19 -49zM-236 -176zM-232 -202zM-225 -207z" />
    <glyph glyph-name="W" unicode="W" horiz-adv-x="758" 
d="M477 84l-9 -12q-2 -5 -5 -6q-2 -4 -5 -7v-1q-45 -59 -83 -97q-57 -55 -110 -78q-40 -18 -71 -18q-40 2 -58 33q-13 21 -15 61q0 34 5 74q10 68 39 143q8 22 28 64l-100 -131l-141 -184q-77 -100 -106 -131q-15 -17 -31 -27q-26 -17 -39 4l-1 1q-9 14 -7 40q2 14 13 53
q5 17 17 51q22 58 52 120q4 9 29 56q6 10 8 15q1 2 3 4q22 41 51 88q131 207 177 272q63 87 197 257q14 16 23 12q10 -3 8 -18q-1 -6 -11 -18q-3 -3 -9 -11q-39 -45 -152 -197q-98 -131 -180 -265q-107 -176 -149 -275q-21 -49 -39 -108q-1 -5 -3.5 -13.5t-3.5 -12.5
q0 -4 -1 -6v-3q-1 -3 -1 -10v-5v-2q1 -1 1 -3q12 5 36 31q29 33 112 141l140 183l141 184l140 183l141 183q8 12 20 6q5 -3 6.5 -9t-1.5 -11q-16 -24 -43 -60l-57.5 -76l-67 -89l-54.5 -77q-98 -145 -134 -259q-23 -75 -26 -136l-1 -16q0 -16 1 -16v-8q0 -1 1 -3v-1v-1
q0 -4 2 -14q0 -1 1 -3.5t2 -3.5q0 -2 1 -2l1 -3q1 -1 3 -5q0 -1 2 -3l5 -5l1 -1h1l2 -2h1l2 -1l1 -1h1q4 -2 6 -2q4 -1 7 -1h8q8 0 14 1q12 2 31 10q17 6 27 12q9 5 27 17q43 29 93 86l35 43q1 1 5 6t9.5 13l10.5 15q-13 12 -19 23q-8 10 -13 26q-22 55 0 152
q35 155 113 249q12 15 24 26q15 17 28 24q37 22 69 -10q41 -40 25 -128q-10 -55 -50 -138q-32 -66 -75 -130l-45 -67h-1l-5.5 -8l-5.5 -8h5q24 -2 71 24q34 19 60 40q14 10 67 56q37 36 59 62q2 -1 3.5 -3t4 -8t-2.5 -11q-10 -14 -48 -53t-101.5 -86t-106.5 -51q-15 0 -30 5
zM457 135q4 -7 12 -13q6 8 7 9q51 70 79 119q38 61 65 125q33 77 34 127q0 3 -0.5 8.5t-0.5 7.5v3v2q-1 0 -1 1q0 4 -1 6q-2 10 -4 15l-1 2q0 1 -0.5 1t-0.5 1q-2 4 -4 7q-7 12 -16 17q-11 8 -22 2q-9 -4 -24 -19l-23 -24q-24 -30 -37 -52q-29 -47 -53 -117l-17 -61
q-10 -48 -12 -73q-2 -40 7 -67q6 -17 13 -27z" />
    <glyph glyph-name="X" unicode="X" horiz-adv-x="373" 
d="M544 709q11 -11 0 -20q-4 -3 -11 -10t-11 -10l-177 -160l-173 -167l-118 -119l-78 -166q-14 -29 -38 -89q-12 -24 -50 -147v-1v0q-1 -2 -2.5 -6t-1.5 -6q-1 -6 0 -8.5t6 -0.5q2 1 4 3q2 1 4 3q21 16 78 70l219 230l1 1l146 153q21 21 31 32q1 0 3.5 -2t4 -5t-0.5 -8
q-5 -9 -139 -161l-169 -181l-25 -27l-90 -92q-8 -8 -12 -11q-48 -41 -71 -39q-6 2 -8 3t-5 4v0q-5 4 -6 12q-4 12 0 28q3 18 10 42t13 39l5 15l14 36t11 29l50 117l31 65l-146 -159l-156 -180q-9 -10 -21 0q-9 9 0 21q3 4 9.5 11.5t10.5 10.5l156 180l163 175l25 27
q22 42 38 77q68 137 105 227q35 88 41 115q0 3 1 7.5t2 6.5q0 2 0.5 5.5t1.5 5.5v13v2v0q0 1 -0.5 3t-0.5 3h-1q0 2 -1 2v1h-1h-1q-2 0 -4 -1q-9 -4 -23 -14q-29 -20 -59.5 -50.5t-49.5 -53l-50 -60.5q-10 -11 -21 0q-10 10 0 21l36 44q37 47 79 84q22 20 46 37q38 28 59 20
q25 -11 21 -48q-1 -19 -11 -57q-9 -28 -46 -118q-30 -70 -96 -206l77 77l173 165l178 160q11 10 21 0zM217 708z" />
    <glyph glyph-name="Y" unicode="Y" horiz-adv-x="404" 
d="M554 697q9 -9 0 -21l-32 -41q-65 -85 -129 -182l-123 -186l-34 -51q63 30 84 39q42 19 84 36q1 0 1 -1q4 -7 3.5 -11.5t-2.5 -6.5l-2 -2l-79 -40q-111 -56 -124 -64q-24 -36 -51 -72q-65 -87 -133 -162q-69 -76 -152 -144q-2 -1 -4 -3q-44 -32 -64 -20q-7 3 -13 18
q-5 18 2 40q7 21 19 46q43 85 132 161q69 60 179 123q44 24 66 35l101 151l103 156q-1 -1 -61 -58q-72 -68 -109 -100q-19 -16 -44.5 -34.5t-66 -43t-70 -24t-35.5 34.5t25 102q29 57 63 111l39.5 60.5l42 65l36.5 60.5t36 67q8 13 20 5q12 -6 6 -20q-3 -5 -8.5 -15.5
t-8.5 -15.5q-27 -50 -86 -141.5l-66 -102.5q-13 -20 -56 -106q-5 -12 -7 -19q-3 -6 -5.5 -18.5t-1.5 -25t9 -12.5q16 0 38 12q28 13 67 40q26 18 87 72l106 99q105 99 197 209q10 11 21 0zM43 6q47 55 100 128q-17 -9 -51 -29q-102 -61 -166 -124q-39 -38 -66 -77
q-15 -21 -26 -41l-15 -33q-9 -26 -7 -36l-1 1q1 0 1 -1q0 -2 2 -3l2 1h2q2 0 11 5q2 1 23 17q6 6 9 8l2 2q26 22 38 34q76 69 142 148z" />
    <glyph glyph-name="Z" unicode="Z" horiz-adv-x="427" 
d="M559 687q-9 -7 -22 -15q-5 -3 -47 -24q-140 -74 -218 -125q-69 -44 -145 -106q43 19 83 32q27 7 55 9q31 0 46 -8q22 -12 25 -37q4 -22 -10 -55q-17 -41 -57 -102l-34 -47q2 1 6.5 3t6.5 3q85 38 181 76q2 -7 1.5 -11t-2.5 -6l-1 -2l-173 -85l-60 -29q-27 -31 -61 -65
q-59 -60 -161 -151q-108 -95 -188 -139q-33 -18 -47 -22q-24 -9 -42 -2q-21 9 -24 29q-4 19 10 46q21 40 72 78q38 29 91 65q94 62 197 117q56 30 134 68q48 54 88 120q15 24 27 48q10 19 11 23q7 23 7 31q0 12 -8 18q-4 4 -17 6q-25 3 -67 -8q-24 -7 -54 -20
q-20 -8 -107 -47q-12 -5 -19 4q-7 11 1 19q58 55 121 103q86 66 215 139l108 58q28 14 41 21q6 4 10 6l1 1l-334 -35q-15 -2 -18 11q-2 5 1.5 11t8.5 7h2h2q3 0 8.5 0.5t8.5 1.5l33 3q7 1 21.5 2.5t21.5 2.5q18 1 49 5q8 1 26 2.5t26 2.5t25 2.5t25 2.5q7 1 21.5 2.5
t21.5 2.5q50 5 60 5q23 0 27 -13q7 -18 -10 -33zM-300 -189zM-7 0q88 80 129 123l-101 -53q-108 -61 -187 -116q-15 -10 -45 -32q-24 -17 -38 -29q-18 -15 -32 -34q-16 -21 -20 -39v0v0v-2v-4v-1q1 -1 1 -2t0.5 -1t0.5 -1q1 0 1 -0.5t1 -0.5q0 -1 1 -1h1q0 -1 3 -1
q0 -1 1 -1h1h-1h3q4 0 6 1h1q1 0 5 1t5 2q1 0 2 1h1l6 3q5 2 10 5l23 11l45 27q63 42 177 144zM284 428z" />
    <glyph glyph-name="bracketleft" unicode="[" horiz-adv-x="167" 
d="M382 683q6 1 10 -4t4 -11q0 -12 -14 -14h-11.5t-11.5 -1l-2 -1h-1q-1 -1 -1 0q-1 0 -1 -1l-2 -1h-1q-1 -1 -2 -1h-1q0 -1 -1 -1q-1 -1 -3 -4l-2 -2q-3 -3 -7 -9q-1 -1 -6 -8t-7 -11l-56 -78q-67 -93 -191 -285l-96 -148l-20.5 -32l-25.5 -41l-30 -47q13 1 34 5
q15 4 18 -10q4 -14 -10 -18q-42 -6 -59 -8h-1q-2 -1 -4 -1h-6h-3q-8 0 -12 8q-2 5 -1 11q3 5 4 6l28 43.5t23 35.5l54 85l194 298l97 139l52 72q2 2 6 8t7 9q7 6 17 11l1 1q1 0 5 2q2 0 3 1q2 0 6 0.5t6 0.5h10t10 1z" />
    <glyph glyph-name="backslash" unicode="\" horiz-adv-x="487" 
d="M347 -79q4 -14 -11 -18q-12 -3 -18 10l-49 165l-87 290l-87 291q-4 14 11 18q12 3 18 -10l49 -165l87 -290z" />
    <glyph glyph-name="bracketright" unicode="]" horiz-adv-x="165" 
d="M329 675q16 0 14 -19q-4 -19 -22 -41l-29 -40l-59 -80q-100 -139 -196 -294l-95 -154q-44 -70 -46 -74q-12 -21 -29 -27q-7 -2 -23 -2h-18q-14 -2 -18 10q-2 16 11 18q8 1 25 1h10q1 1 5 1q2 1 3 1v1l1 1l2 2l2 3q2 2 2 4l11 17l52 84q136 220 188 297l100 143l51 69
l26 35l10 13q-14 0 -21 -1q-6 0 -10.5 4.5t-4.5 10.5q0 13 15 15q13 0 43 2z" />
    <glyph glyph-name="asciicircum" unicode="^" horiz-adv-x="266" 
d="M250 602q9 5 17 0.5t7 -15.5q-1 -5 -3.5 -14t-3.5 -11q-3 -9 -9 -25q-12 -31 -14 -48q-4 -15 -16 -15q-5 0 -9.5 4.5t-3.5 10.5q3 18 15 52q2 4 4 12q-8 -7 -26 -21l-57 -47q-13 -9 -20 1q-9 10 2 21q1 1 2 2.5t2 2.5l6 3q26 22 39 32q41 33 44 35q19 17 24 20z" />
    <glyph glyph-name="underscore" unicode="_" horiz-adv-x="360" 
d="M170 126q6 0 10.5 -4.5t4.5 -9.5q0 -6 -4.5 -10.5t-10.5 -4.5h-6h-171q-14 0 -14 15q0 5 4 9.5t10 4.5h171h6z" />
    <glyph glyph-name="grave" unicode="`" horiz-adv-x="232" 
d="M173 641q5 4 11 3t9 -6q24 -38 35 -57q7 -13 -3 -20q-12 -10 -21 3q-11 19 -35 57q-8 13 4 20z" />
    <glyph glyph-name="a" unicode="a" horiz-adv-x="199" 
d="M95 170l-90 -74q-8 -6 -24 -16h-1q-12 -8 -23 -10h-9v0h-2l-2 1l-6 3q-2 1 -6 7q-7 13 14 50q9 18 31 52l12 19l-1 -1q-4 -2 -6 -4q-12 -6 -18 -8q-14 -4 -23 0q-9 3 -9 19q2 13 12 25q17 24 46.5 51.5t49.5 22.5l5 -3q7 -5 7 -13v-3l2 2q11 8 20 1q7 -7 -2 -19
q-53 -72 -74 -105q-14 -22 -25 -41l-3 -6q-9 -15 -4 -16q2 0 8 5l4 3q2 1 5 4l216 175q1 -1 3.5 -2.5t5 -5.5t0.5 -7q-5 -7 -43.5 -44t-69.5 -62zM-28 221l23 19l30 25q-4 1 -7 6l-3 -3l-6 -7q-2 -2 -4.5 -4t-5 -5t-3.5 -4q-14 -14 -24 -27z" />
    <glyph glyph-name="b" unicode="b" horiz-adv-x="208" 
d="M258 567q19 -6 17 -28q-2 -8 -10 -20l-10 -16l-22 -28q-42 -53 -105 -106q-31 -28 -90 -75l-6 -9q-48 -75 -82 -146q-2 -4 -3 -7l-3 -6q-5 -15 0 -22l21 14q31 23 34 25q25 19 48 42q-9 0 -16 3q-14 5 -14 18q-2 38 26 62q15 15 33 16q4 0 6 -1q19 -3 26 -17q2 -2 2 -5
l3 -11l95 41h1q13 -8 -3 -19q-51 -32 -69 -42l-29 -18q-9 -18 -44 -53q-34 -32 -52 -47q-71 -53 -93 -25q-1 1 -2 2.5t-1 2.5t-1 2l-1 1v2q-9 21 2 46q16 36 38 74q2 5 4 7l62 102q33 52 69 95q50 65 107 122q21 21 36 24q12 3 26 0zM49 219q0 -1 -0.5 -2.5t-0.5 -2.5
q1 0 3 1t3 1q9 2 21 9l2 2t2 1l3 9q0 1 1 2v2v6q0 6 -7 4v0q-1 0 -3 -2l-9 -6q0 -1 -1 -1l-1 -1l-4 -4q0 -1 -1 -2.5t-2 -2.5l-1 -2q-1 -1 -1 -2l-1 -2q-1 -1 -1 -2q-1 -1 -1 -2.5t-1 -2.5zM231 528q2 2 4 6q0 -1 -1 -1q-1 -1 -4 -3t-4 -3t-3.5 -4t-5 -5t-4.5 -4l-28 -31
q-27 -28 -55 -63l-8.5 -11t-8.5 -10q3 2 8 6.5t7 6.5l43 42q23 24 42 48zM245 549z" />
    <glyph glyph-name="c" unicode="c" horiz-adv-x="197" 
d="M198 263q-64 -46 -129 -86l-89 -55q-5 -3 -15 -9.5t-15 -9.5q-14 -9 -28 -6q-12 2 -18 13t-5 23q0 19 17 53l15 27q1 1 1 2q3 4 8.5 12t8.5 12q3 3 4 5q21 27 40 43q4 4 12 7l1 1h1q14 4 29 3q8 -2 12 -4q9 -3 9 -17q1 -13 -12 -21q-12 -8 -24 -11q-14 -5 -18 10l-2 -2
q-17 -16 -37 -43q-17 -26 -26 -47q-7 -12 -9 -21q0 -3 -1 -4v-1v-1v-7v-2l1 -1h1l2 1q3 2 25 15q2 2 11.5 8l14.5 9l106 65l53 33l25 16h1q3 2 7 5t7 4l2 1l2 1h1l4 3v0l1 1l5 3q1 -2 2.5 -5.5t3 -12.5t-4.5 -10zM-72 125zM-72 126zM-71 125zM-70 124v1h-1zM-70 124z" />
    <glyph glyph-name="d" unicode="d" horiz-adv-x="200" 
d="M245 561q13 13 20 11q23 -5 6 -45q-25 -56 -80 -126l-36.5 -44t-33.5 -41l-74 -85l-58 -85l-2 -3l-9 -14q-16 -26 -15 -28q1 -1 4 1l11 9l222 180l7 -5q3 -3 2.5 -7t-3.5 -7l-3 -3l-7 -8l-76 -67l-138 -113q-6 -5 -16 -8q-1 -1 -3 -1.5t-7.5 -1.5t-10.5 1l-6 3q-2 1 -6 7
q-7 13 14 50q9 18 31 52q8 11 13 20l-2 -2q-4 -2 -6 -4q-12 -6 -18 -7q-13 -5 -23 -1q-9 3 -9 19q2 13 12 25q17 24 46.5 51.5t49.5 22.5q4 -2 5 -3q7 -4 7 -13v-3l1 1q2 4 7 11l7 10q3 4 28 40q18 24 37 52l39 55l67 96q2 2 6 8zM-4 240l30 25q-4 1 -7 6l-3 -3q-4 -4 -6 -7
q-2 -2 -4.5 -4t-5 -5t-3.5 -4q-13 -14 -24 -27q9 7 23 19z" />
    <glyph glyph-name="e" unicode="e" horiz-adv-x="197" 
d="M197 291q1 -2 2.5 -5.5t3 -12t-4.5 -10.5l-129 -86l-89 -55q-5 -3 -15 -9.5t-15 -9.5q-15 -9 -28 -6q-24 4 -24 36q1 19 18 53l15 27q1 1 1 2q5 8 17 24l1 2l3 3q23 30 40 43q2 2 6 4q26 12 40 -10q5 -12 3 -22t-6 -15v0q-3 -6 -12 -18q-11 -12 -33 -28q-8 -6 -14 -10
q-25 -16 -36 -18q-2 -4 -3 -7q-2 -2 -4 -8q-8 -18 -5 -29h1h1l1 1l25 15q2 2 11.5 8l14.5 9l106 65l53 33l25 16h1q3 2 7 5t7 4l2 1l2 1l5 3v0l1 1zM15 265q-13 -9 -24.5 -21t-16.5 -19l-4 -7q13 9 24.5 21t15.5 19z" />
    <glyph glyph-name="f" unicode="f" horiz-adv-x="173" 
d="M237 469q-44 -73 -134 -157l-96 -87l50 20l1 1v-1l58 23l57 23q10 -13 -2 -20q-8 -5 -40 -19l-84 -38l-93 -42l-27 -39l-30 -46h-1l-176 -278q-5 -9 -14 -7.5t-13 10.5q-6 16 14 38q1 1 3 3.5t3 3.5l3 3q0 1 1 2q1 0 1 1t1 2v1l1 1q9 12 13 18l79 125l90 138l1 1l-12 -5
l-12 -6q-13 -5 -20 6q-6 13 6 20l66 31q1 0 3 1h1q40 59 49 71l47 68q72 100 112 147q33 38 63 68q12 12 23 19q15 10 26 12q14 3 18.5 -4t1 -22t-6 -22.5t-6.5 -17.5q-13 -26 -25 -46zM36 291l-1 -1q84 74 125 122q51 60 83 133l-34 -33q-40 -43 -66 -77q-44 -54 -107 -144
z" />
    <glyph glyph-name="g" unicode="g" horiz-adv-x="170" 
d="M171 291q2 -1 4 -3.5t5 -8.5t-3 -9l-206 -182l-69 -66l-18 -18l-20 -23l-75 -87l-11 -13.5l-13 -15.5t-12 -13q-22 -22 -43 -23q-10 0 -14 11q-5 16 12 35q4 5 13 13t13 13q1 1 56 53l73 70q48 55 63 77q1 2 5 8l6 9l23 38l17 26l12 20q0 -1 -1 -1q-4 -2 -6 -4
q-12 -6 -18 -8q-13 -4 -23 0t-8 19q2 14 11 25q17 24 46.5 51.5t49.5 22.5q4 -2 5 -3h1q6 -4 6 -13v-3l1 1q1 1 2 1q11 9 19 1q7 -7 -1 -19q-34 -44 -60 -82l-37 -58zM-28 220q1 1 10 8.5t13 11.5l30 25q-5 1 -6 6q-2 -2 -4 -3q-1 -1 -3 -3.5t-3 -3.5l-13 -13
q-15 -15 -24 -28z" />
    <glyph glyph-name="h" unicode="h" horiz-adv-x="266" 
d="M119 123l-3 -3l-39 -37q-8 -8 -22 -18q-14 -12 -24 -14q-23 -4 -28 16v17q1 2 2 7t1 7q6 28 16 53q10 24 16 36l-51 -40q-46 -37 -49 -40q-1 -1 -4.5 -3.5t-5 -4t-5 -3.5t-5.5 -3t-5.5 -3t-6 -2.5t-5.5 -1t-6 -0.5t-6 1l-6 2q-6 4 -6 10.5t3 11.5l3 5l69 104l130 195
l131 196q8 13 20 6q5 -3 6.5 -9t-1.5 -11l-74 -111l-130 -195l-98 -148l38 31l80 64q2 1 5 4q13 8 18 7l2 -1l2 -1q6 -4 3 -23h-1v-3h-1v-1q0 -2 -1 -4t-1 -4q-8 -18 -12 -26l-10.5 -25.5t-11.5 -29.5q-10 -30 -13 -46l12 9q12 10 35 33l39 36q59 54 147 128q1 -1 3 -3.5
t4.5 -8.5t-1.5 -9l-7 -8l-4 -4z" />
    <glyph glyph-name="i" unicode="i" horiz-adv-x="159" 
d="M159 291q16 -14 0 -29l-98 -78l-27 -23q-18 -13 -21 -15q-8 -6 -14 -10q-18 -11 -33 -11q-17 0 -32 12q-17 16 -14 35v1q6 34 85 125q1 1 4 3q11 5 20 -4q11 -11 3 -19q-25 -23 -41 -46q-19 -25 -29 -44q-9 -13 -12 -22q-1 -3 -1 -6q1 -1 0 -1h1l2 -2q0 -1 1 -1t2 -1h1h3
q5 0 10 2q4 1 23 13q1 1 3 2.5t4.5 3t3.5 2.5l149 108l4 3zM74 409q5 0 9.5 -4.5t4.5 -10.5t-4.5 -10.5t-9.5 -4.5q-6 0 -10.5 4.5t-4.5 10.5t4.5 10.5t10.5 4.5z" />
    <glyph glyph-name="j" unicode="j" horiz-adv-x="156" 
d="M156 291q1 -1 2.5 -3t3.5 -8t-3 -9l-47 -41l-94 -76q-93 -70 -164 -137q-3 -4 -14.5 -21l-17.5 -26q-53 -74 -146 -180q-7 -8 -17.5 -1.5t-6.5 16.5q24 58 85 132q47 55 94 99l54 82l27 41l18 28l68 102q9 11 20 5q13 -8 6 -20l-77 -115q-23 -34 -30 -47q1 1 7.5 6t9.5 8
q82 66 222 165zM61 409q14 0 14 -15t-14 -15q-6 0 -10.5 4.5t-4.5 10.5t4.5 10.5t10.5 4.5z" />
    <glyph glyph-name="k" unicode="k" horiz-adv-x="210" 
d="M211 462q-71 -84 -153 -135l-34 -51l31 19q7 3 9 4q9 1 10 -7v-5q-1 -8 -9 -14q-18 -16 -26 -24q-22 -20 -34 -30q-6 -6 -16 -14l-3 -40q-2 -45 -2 -54v-5v-2l1 -2q0 -1 1 -1h-1v0q1 0 1 -1v1v0v-1v1h1q4 0 6 2q19 12 22 15l12 9q9 7 16 16l167 148q14 -9 0 -25h-1
l-35 -36q-81 -81 -108 -106l-4 -4l-25 -22v0q-4 -4 -7 -5q-29 -24 -48 -21q-26 4 -28 39q0 1 3 55v9l-45 -69q-1 -1 -5 -7l-47 -71q-7 -12 -20 -6q-5 3 -6.5 9t1.5 11q15 27 35 56q4 5 12 17l119 179q5 7 15 23l22 32q0 1 1 2.5t2 2.5l137 202l2 2q45 66 67 90q17 17 22 21
q15 10 26 9q1 0 1 -1q40 -8 -10 -107q-28 -51 -75 -108zM122 421q-1 -2 -6.5 -11t-9.5 -13q30 26 52 50q45 48 78 100l1 1q4 5 10.5 15.5l9.5 15.5q26 46 28 66q-5 -2 -21 -22l-9 -12l-20 -26q-27 -36 -61 -87l-35 -51z" />
    <glyph glyph-name="l" unicode="l" horiz-adv-x="176" 
d="M300 656q23 -14 -1 -67q-10 -27 -36 -66q-40 -58 -99 -117l-8 -8l-4 -4l-30 -29q-10 -9 -85 -69l-10.5 -16.5l-8.5 -13.5l-3 -4q-1 -2 -3.5 -6.5t-4.5 -6.5q-58 -92 -76 -132q-2 -3 -4 -9q3 3 9 7l31 24l209 152q0 -1 1 -2q4 -8 4 -14t-1 -8l-2 -2l-65 -51
q-113 -87 -120 -92l-56 -43q-12 -8 -19 -10q-21 -8 -27 11q-3 13 9 39q5 12 17 36q20 39 84 140q111 174 182 267q32 42 49 62q13 13 28 25q24 16 40 7zM-91 96h-1h1zM281 624l1 2v2l-1 -1q-1 -1 -2 -1q-8 -6 -11 -9q-9 -8 -47 -53l-45 -59q-43 -60 -89 -131q-3 -3 -4 -5
q35 31 80 78q60 64 87 110q20 31 29 59q0 4 2 8zM282 634v-1v1zM287 630z" />
    <glyph glyph-name="m" unicode="m" horiz-adv-x="372" 
d="M376 264q0 -3 -76 -66l-102 -82l-2 -2q-13 -13 -31 -18q-12 -3 -18.5 1t-7.5 9t0 10q2 30 26 66l33 54l-47 -34q-23 -16 -40 -29q-3 -2 -32 -23l-65 -48q-22 -17 -34 -5q-5 4 -5 11v3l119 131l3 3q-2 -2 -6 -4t-6 -4q-104 -69 -193 -160q-10 -9 -19.5 -1t-2.5 19l23 35
l80 121q1 3 4.5 8t5.5 7q1 0 1 1t1 2t2 3t2 3q0 1 1.5 3t2.5 3l1 2l2 3v1l2 2v1l1 1h4h10q7 0 9 -3q5 -3 1 -13h-1l-13 -20l-2 -4q-1 -1 -2.5 -3t-1.5 -3l-15 -23l-31 -46q81 68 170 121q8 4 14 3q6 0 10 -4t3 -10q0 -19 -18 -39v0l-4 -4l-7 -9h-1q-2 -3 -6 -7q0 -1 -0.5 -1
t-0.5 -1v0l-14 -15l-18 -21q2 1 23 17h1l45 33q5 3 13 9l23 16q1 1 3.5 3t4.5 3h1l1 1q14 8 26 1q11 -7 4 -29q-8 -24 -33 -63q-8 -12 -12 -19l-5 -10q-2 -2 -2 -3l-1 -3q-1 -2 -6 -14l38 30l58 45l82 67l10 8h1l12 10q2 -2 4.5 -4t6.5 -9t-3 -11q-2 -2 -4 -3z" />
    <glyph glyph-name="n" unicode="n" horiz-adv-x="243" 
d="M243 291q1 -1 2 -2.5t3.5 -6t-0.5 -6.5q-3 -4 -57 -55t-87 -79l-21 -18l-3 -2l-2 -2q-36 -28 -53 -27q-1 0 -1 0.5t-1 0.5q-8 1 -10 11q-2 12 4 33q1 2 2.5 6.5t2.5 6.5l1 2q7 16 15 29l31 53l-156 -138q-3 -2 -7 -5l-3 -2q-6 -3 -13 -3v0v-1h-3l-2 1h-1l-2 2q-3 3 -3 12
l1 3q1 3 3 5l36 54l81 128q9 0 14 -2q1 0 2 -1q12 -6 0 -25l-5 -9q-2 -2 -2 -3q-1 -1 -5 -7q-3 -3 -7.5 -11t-6.5 -11l-20 -31l-10 -15h1l-6 -9l113 101q4 4 12 7q8 2 17 -4q11 -6 5 -28q-8 -26 -32 -63q-6 -9 -11 -19q-4 -6 -6 -10q-1 -2 -1 -3l-2 -3q-1 -2 -2.5 -7
t-2.5 -8l38 30l57 46l79 66l11 9z" />
    <glyph glyph-name="o" unicode="o" horiz-adv-x="161" 
d="M161 291l2.5 -2.5t3.5 -6.5t-2 -8q-1 -2 -7 -8q-66 -63 -130 -83q0 -1 -2 -3q-3 -6 -7 -10l-5 -7q-1 -2 -5 -6t-5 -6q-16 -18 -30 -28q-27 -21 -44 -18q-21 5 -21 29q-1 14 10 35q19 39 47 69l1 1q5 20 15 34q16 24 35 24h2q25 -3 31 -31q3 -11 1 -25q-2 -12 -3 -13
q0 -2 -2 -6q0 -5 -2 -5q15 2 44.5 20.5t51.5 36.5zM-62 132zM-9 181q-14 5 -20 17q-16 -21 -26 -42q-1 -1 -4 -7v-1l-2 -4q0 -1 -0.5 -3t-0.5 -4v1v-4h1q1 1 2 1q26 15 50 46zM-4 213zM21 238q2 10 2 12q-16 -12 -29 -26q-1 -1 -1 -2l1 -1v-2v-1q0 -2 1 -3v-1q1 -1 1 -2
l1 -1l1 -1h1l1 -1l2 -1h3q1 -1 3 -1h1q8 16 12 31z" />
    <glyph glyph-name="p" unicode="p" horiz-adv-x="260" 
d="M260 291q9 -17 0 -23l-306 -175l-6 -4l-52 -41l-2 -2q-7 -4 -11 -3h-1v1q-2 0 -3 1q-3 -5 -9 -13l-40 -60l-135 -195q-9 -11 -20 -5q-14 8 -5 20l82 126q51 76 93 130l33 50l122 194l23 1q10 -4 0 -19l-48 -78q20 20 31 29q32 28 49 41q37 30 63 37q7 2 12.5 -2.5
t6.5 -11.5q1 -31 -29 -65q-14 -15 -46 -43zM-60 116q44 34 101 84q37 35 46 45q12 14 14 18q-12 -7 -36 -26l-54 -47q-44 -42 -73 -75z" />
    <glyph glyph-name="q" unicode="q" horiz-adv-x="148" 
d="M81 166zM157 274q-6 -10 -113 -140.5l-137 -165.5l-165 -190q-4 -6 -12 -4q-4 0 -6 2q-5 2 -7 8.5t2 11.5l73 110l132 196l67 100l-2 -1q-4 -2 -6 -4q-12 -6 -18 -8q-14 -4 -23 0q-11 4 -9 19q2 13 12 25q17 24 46.5 51.5t48.5 22.5h1q4 -2 5 -3q5 -3 7 -9q0 1 2 3
q8 12 20 5q12 -8 5 -20l-74 -110l-131 -197q-1 0 -2 -2l-1 -2l120 138l156 181l4 -2t6 -5.5t-1 -9.5zM-27 220l23 20l30 25q-4 1 -7 6l-3 -3q-1 -1 -3 -3.5t-3 -3.5q-2 -2 -7 -6.5t-7 -6.5q-16 -18 -23 -28z" />
    <glyph glyph-name="r" unicode="r" horiz-adv-x="205" 
d="M205 291q10 -11 0 -20l-210 -154v0l-1 -1q-22 -18 -37 -13q-5 1 -7 5q-7 10 -1 24q2 9 14 32l15 21q24 38 58 86q-25 -8 -33 -3.5t-5 14.5l2 9q11 -6 34 1q7 2 14 2q25 -1 20 -25q-1 -4 -5 -10q-5 -7 -8 -12l-13 -19q-5 -9 -11 -16q-6 -11 -13 -19l-11 -17q-6 -8 -8 -12
q-2 -3 -5.5 -7.5t-5.5 -7.5q-2 -4 -4 -7q-2 -4 -1 -6l208 145l8 6q1 0 1 1z" />
    <glyph glyph-name="s" unicode="s" horiz-adv-x="195" 
d="M197 287q2 -8 0 -12q-2 -6 -12 -12q-4 -2 -14 -9q-2 -2 -6 -4t-6 -4q-10 -6 -14 -9q-6 -4 -16 -10l-18 -12q-6 -3 -18 -11l-18 -12l-18 -12q-6 -3 -18 -11q-1 -1 -6.5 -4.5t-9.5 -5.5q-2 -1 -6.5 -4t-6.5 -5q-2 -62 -35 -114q-20 -28 -32 -40q-22 -22 -42 -31
q-29 -15 -54 -5q-27 9 -32 37q-2 17 6.5 34.5t17 27.5t25.5 26q36 32 83 61h1q3 2 9 5t9 5l14 9l-3 30q-8 71 26 99q27 21 51 5q22 -14 17 -43q-1 -5 -7 -8.5t-11 -1.5q-5 1 -9 7q-2 4 -2 14q0 11 -12 9q-4 -2 -7 -4q-10 -7 -15 -23q-2 -10 -4 -22q0 -16 4 -46l187 110l1 -1
v-1q1 -1 1 -2zM42 263v1v-1zM-26 103q1 4 2.5 11t2.5 10v7q-69 -40 -111 -83q-9 -9 -15 -18t-9 -20v-1v-2v-4q0 -2 1 -3l1 -3l2 -4h1l1 -2l1 -1q1 0 1 -1l2 -1h1q8 -4 18 -2q13 3 22 8q15 9 35 31q30 33 44 78z" />
    <glyph glyph-name="t" unicode="t" horiz-adv-x="171" 
d="M341 483q6 0 10.5 -5t4.5 -10q0 -13 -15 -15q-33 -3 -99 -11q-78 -8 -116 -13l-108 -165q-15 -20 -32 -46l-87 -133l46 35l226 171q2 -1 3.5 -3t3.5 -8t-6 -11l-267 -216l-2 -2v0q-37 -28 -52 -19q-16 10 3 38l4 6l229 349l-195 -21q-6 -1 -10.5 3.5t-4.5 10.5
q0 13 15 15q16 2 49 5.5t50 5.5q78 8 117 13l59 89q0 3 2 7q3 9 13 14q9 5 17.5 -3t2.5 -17q-4 -5 -10 -15l-46 -71q130 14 195 22z" />
    <glyph glyph-name="u" unicode="u" horiz-adv-x="217" 
d="M217 291q1 -1 2.5 -3t3.5 -8.5t-5 -10.5q-12 -10 -17 -15q-16 -14 -22 -20q-5 -4 -14.5 -12.5t-10.5 -9.5l-26 -24q-16 -14 -24 -22q-14 -12 -21 -19q-3 -2 -8.5 -7t-8.5 -8q-20 -17 -26 -21q-10 -7 -23 -12q-13 -4 -21 3l-2 2l-2 2q-4 10 -3 18q2 14 15 42
q-6 -6 -17.5 -18.5t-17.5 -18.5l-38 -39q-27 -29 -46 -20q-11 5 -7 17q7 21 25 49l72 115l25 40h2q6 0 11 -1.5t9 -7t-4 -16.5l-51 -83q-5 -6 -13 -19.5t-13 -20.5l128 132q8 10 19 1q10 -6 4 -18q-9 -18 -44 -74q-7 -11 -19 -33l-6 -15q-1 -2 -3 -8l9 8z" />
    <glyph glyph-name="v" unicode="v" horiz-adv-x="180" 
d="M166 354q9 -4 7 -16q-2 -8 -3 -11q-2 -11 -14 -11l-1 -1q-1 -2 -4.5 -6t-5.5 -6q-6 -6 -18 -20q-4 -5 -12.5 -13t-12.5 -13l-28 -31l-30 -33l-29 -33l-28 -30q-1 -1 -9.5 -10.5t-12.5 -14.5q-3 -3 -8.5 -9t-8.5 -9q-20 -22 -32 -30q-19 -12 -28 -6q-3 0 -3 2l-1 1
q-1 0 -1 1q-5 7 -2 12q4 12 7 18q6 12 10 18l108 201q2 5 9 6.5t11 -1.5q12 -7 5 -20q0 -1 -1 -2l-83 -159l201 224q3 4 8.5 4t9.5 -2z" />
    <glyph glyph-name="w" unicode="w" horiz-adv-x="224" 
d="M228 276q-4 -7 -11.5 -18t-33.5 -30.5t-54 -23.5q-18 -40 -49 -73q-14 -17 -33 -31q-25 -21 -41 -26q-17 -6 -27 1q-12 6 -14 22q-1 15 12 45q17 34 21 41q-16 -16 -23 -24q-7 -7 -20 -22t-23.5 -26t-22.5 -19q-8 -5 -16 1q-8 7 -5 16q2 14 23 48q20 30 29 45l51 74
q0 3 4 9q3 4 10 11q9 10 19 2q12 -8 4 -19q-22 -30 -54 -79q29 27 53 41q7 4 15 0t7 -13q-2 -21 -19 -49q-14 -21 -24 -45q-5 -10 -8 -19q-1 -3 -3 -7v-5h-1v-1v-1h1l2 1h1q3 1 9 5q19 12 29 21q15 13 28 28q22 25 37 55q-24 15 -20 52q1 3 2 8t1 8q3 17 20 22q13 3 22 -6
q16 -16 16 -40q0 -14 -2 -20q2 1 5 1t4 1q11 4 17 8q19 9 34 22q9 7 24 24q1 0 2.5 -1t3.5 -5t-2 -9zM113 250v5v1v1q-1 1 -1 2.5t-1 2.5v1v-1l-1 -1v-1v-6q0 -4 1 -6v-3q1 0 1 -2v1v1q1 2 1 5z" />
    <glyph glyph-name="x" unicode="x" horiz-adv-x="227" 
d="M227 291q2 -1 3.5 -2.5t4 -6.5t-2.5 -9q-5 -5 -100 -83.5l-135 -110.5q-18 -15 -31 -10q-1 1 -4 3v1q-1 0 -2 1q-6 7 -6 26l2 25l-46 -48q-1 -2 -4 -5v-1q-15 -15 -21 -30q-2 -5 -9 -6.5t-11 1.5q-2 1 -5 6q-6 13 39 65l5 5l67 72v1q3 11 10 29.5t9 25.5q4 11 5 19
q1 3 1.5 8t1.5 19.5t-2 22.5q10 0 15 1q12 0 14 -11q5 -27 -6 -63l3 3q12 12 17 18l24 26q18 20 28 30q9 11 20 14q12 2 16 -7q3 -5 1.5 -11t-6.5 -9l-127 -133l-4 -18h1q-1 -1 -1 -4l-5 -23q0 -2 -1 -6t-1 -6l34 25z" />
    <glyph glyph-name="y" unicode="y" horiz-adv-x="234" 
d="M234 291q2 -1 4 -3.5t5 -9.5t-4 -12l-260 -285l-86 -95q-8 -8 -11 -12q-33 -33 -51 -26q-12 6 -5 22l22 42q25 43 122 190l40 60q-26 -32 -40 -47q-22 -26 -35 -37q-16 -12 -28 -8q-15 6 -11 28q3 19 21 51q8 16 26 48q32 56 56 94q9 11 20 5q13 -8 6 -20
q-27 -40 -58 -95q-18 -32 -26 -49l-7 -14q2 3 7.5 8.5t7.5 8.5q11 12 35 41t38 44q36 42 80 81q11 9 20 1q10 -8 3 -18l-72 -110l-127 -192q-8 -13 -24 -37l33 34z" />
    <glyph glyph-name="z" unicode="z" horiz-adv-x="219" 
d="M218 267l-213 -217l-80 -81l-42 -42q-2 -3 -6 -7l-47 -47l-2 -2q-36 -46 -84 -97q-11 -7 -19 -2q-9 7 -6 17q12 22 47 59q13 14 42 43q40 51 63 86q19 26 40 62q14 22 19 32q5 7 6 11q-27 -10 -47 -26q-10 -8 -19 -2q-11 7 -3 19q26 33 53 62l47 48t50 52q18 23 20 26
q13 15 18 24l-9 -3q-17 -6 -34 -15q-12 -5 -20 6q-3 5 -0.5 11t7.5 9q30 14 46 19q20 5 23 5q15 0 20 -17q2 -16 -17 -42q-12 -17 -25 -31q-11 -14 -52 -57q-38 -38 -56 -58q5 2 17 4q7 1 13 -3t5 -11q-2 -15 -18 -45l-6.5 -11l-8 -13.5t-6.5 -11.5q-4 -6 -5 -9l67 66
l223 213q11 -11 -1 -24z" />
    <glyph glyph-name="braceleft" unicode="{" horiz-adv-x="251" 
d="M448 677q6 0 10.5 -4.5t4.5 -10.5q0 -5 -4.5 -9.5t-10.5 -4.5h-6h-66q-16 0 -27 -9q-3 -2 -8 -7q-21 -21 -52 -75q-38 -65 -49 -81q-31 -47 -60 -73q-14 -13 -42 -35h3q10 -4 20 -10q10 -8 10 -15q0 -6 -1 -9q-4 -12 -22 -28q-16 -14 -24 -22q-41 -40 -76 -92
q-36 -54 -62 -118q-18 -46 -23 -70q-1 -5 -1 -16v-1v-1q1 -1 1 -3q1 -1 1 -2t1 -1q0 -1 1 -3q1 0 1 -1q1 -1 2 -1l2 -2t2 -1h1l2 -1h3h5h5h4q1 0 1 1q14 1 31 8l2 2h3l1 1q6 3 7 4q2 1 14 8q17 12 28 23q11 10 21 0q9 -10 0 -21q-34 -31 -67 -44q-36 -15 -63 -10
q-30 5 -37 36q-5 24 12 70q20 60 55 122q33 58 70 99q20 23 39 41q12 12 19 17q1 2 4.5 5t5.5 4q-18 8 -40 7q-4 -1 -8.5 2.5t-5.5 7.5q-3 10 7 17q58 42 82 67q26 28 56 78q6 9 16 26.5l18.5 31.5l16.5 26q24 36 30 43q18 21 36 29q12 5 31 5h64h6z" />
    <glyph glyph-name="bar" unicode="|" horiz-adv-x="292" 
d="M113 672q15 0 15 -14v-164v-290v-292q0 -14 -15 -14q-14 0 -14 14v164v290v292q0 14 14 14z" />
    <glyph glyph-name="braceright" unicode="}" horiz-adv-x="255" 
d="M325 667q16 -15 -2 -44q-5 -8 -15 -22.5t-13 -19.5l-60 -84l-60 -86q-32 -43 -37 -48l54 -12q9 -2 10 -12t-7 -15q-10 -6 -31 -16t-31 -17q-12 -7 -22 -20q-6 -10 -13 -29q-9 -30 -21 -60q-14 -34 -31 -64q-16 -31 -38 -62q-28 -38 -45 -55q-53 -55 -119 -58
q-35 0 -56 17q-23 18 -21 48q2 13 15 15q6 0 10.5 -4.5t3.5 -10.5v-4v-1v-1l1 -2v-3l1 -1l1 -2q0 -2 3 -5v-1l2 -2q2 -2 4 -3q1 -2 2 -2q1 -1 2 -1q4 -2 5 -3q1 0 1 -1h1q2 0 3 -1q3 0 7 -2h4h1q1 0 3.5 -0.5t3.5 -0.5t4 0.5t5 0.5h4h2q10 2 15 4q27 7 52 26q7 5 23 21
q12 12 20 24q43 55 72 115q20 47 24 59q15 46 20 56q16 27 46 43q3 2 19 10q-7 2 -22.5 5.5t-23.5 5.5q-9 1 -9.5 11.5t7.5 14.5q17 10 29 27q5 6 14.5 19.5l14.5 20.5l111 158l27 38q6 9 8 15v1h-1q-2 0 -4 1h-3q-3 1 -10 1q-3 0 -10 0.5t-11 0.5q-31 0 -47 -1
q-6 -1 -10 3.5t-4 10.5q0 13 15 15q28 2 57 0q19 0 28 -1q14 -2 22 -10z" />
    <glyph glyph-name="asciitilde" unicode="~" horiz-adv-x="221" 
d="M174 273q7 -13 -5 -20q-39 -24 -60 -20q-15 3 -23 16q-2 3 -4 9q-3 -1 -7.5 -3.5t-5.5 -3.5q-6 -4 -24 -22q-9 -11 -20 0t0 21q15 18 36 30q40 23 48 0q1 -4 1 -12v-2q0 -4 9 -4q7 0 12 3q2 1 23 13q12 9 20 -5zM81 271v1v-1z" />
    <glyph glyph-name="quoteleft" unicode="&#x2018;" horiz-adv-x="254" 
d="M245 642q14 -8 6 -21l-37 -55q-9 -13 -20 -5q-5 2 -7 8.5t1 11.5q18 25 37 55q9 12 20 6z" />
    <glyph glyph-name="quoteright" unicode="&#x2019;" horiz-adv-x="254" 
d="M245 642q14 -8 6 -21l-37 -55q-9 -13 -20 -5q-5 2 -7 8.5t1 11.5q18 25 37 55q9 12 20 6z" />
    <glyph glyph-name="quotedblleft" unicode="&#x201c;" horiz-adv-x="293" 
d="M237 672q14 -8 6 -21l-37 -55q-9 -13 -20 -5q-5 2 -7 8.5t1 11.5q18 25 37 55q9 12 20 6zM283 672q12 -8 5 -21l-37 -55q-8 -14 -20 -5q-5 2 -6.5 8.5t1.5 11.5q18 25 37 55q8 13 20 6z" />
    <glyph glyph-name="quotedblright" unicode="&#x201d;" horiz-adv-x="292" 
d="M237 672q14 -8 6 -21l-37 -55q-9 -13 -20 -5q-5 2 -7 8.5t1 11.5q18 25 37 55q9 12 20 6zM283 672q12 -8 5 -21l-37 -55q-8 -14 -20 -5q-5 2 -6.5 8.5t1.5 11.5q18 25 37 55q8 13 20 6z" />
    <glyph glyph-name="r.1" horiz-adv-x="200" 
d="M200 291q2 -1 3.5 -2.5t4 -6.5t-3.5 -9l-6 -6l-43 -41l-11.5 -11l-13.5 -12.5l-12 -10.5l-50 -48l-63 -58q-53 -47 -75 -55l-2 -1h-2v0h-1l-1 -1q-10 -2 -15 2q-1 0 -1 0.5t-1 0.5l-1 1q-11 12 15 58l16 23q1 2 11 17q28 42 41 63l36 54q2 2 7.5 10t8.5 13
q-31 -13 -32 -4l-97 -144q-5 -9 -14 -4q-10 7 -3 14l77 116l15 21l10 16l3 5q13 -4 38 1v0v0q22 5 31 -4q1 0 1 -1t1 -2v0l1 -1q3 -7 1 -15q-1 -4 -5 -11q-5 -6 -8 -11l-1 -2l-63 -97l-19 -30l-21 -32l-3 -5l-1 -1l-8 -12z" />
    <glyph glyph-name="t.1" horiz-adv-x="174" 
d="M353 492q6 1 10.5 -4t4.5 -11q0 -14 -15 -14q-102 -12 -153 -17q-22 -3 -66 -7l-93 -144l-20 -31q-3 -4 -8.5 -12t-8.5 -12l-141 -214l311 265l2 -10q0 -8 -1 -10v-1l-1 -1v-1l-1 -2h-1l-197 -182l-93 -79l-7 -6l-5 -5l-4 -3l-2 -2q-37 -28 -52 -18q-2 1 -4 3q-5 6 -1 23
l1 1q0 2 1 3q1 3 2.5 6.5t2.5 6.5l2 2l279 418l-58 -6q-103 -12 -309 -34q-6 -1 -10.5 3.5t-4.5 10.5q0 13 15 15l84.5 9.5t88.5 9.5l215 24l54 80q0 3 2 7q3 9 13 14q9 5 17.5 -3t2.5 -17q-2 -3 -5 -8t-5 -7l-27 -42l-13 -19v-1l54 6q16 2 46.5 5.5t44.5 4.5z" />
    <glyph glyph-name="u.1" horiz-adv-x="219" 
d="M219 291q12 -10 0 -22l-28 -28l-175 -179l-8 -8q-38 -35 -56 -24t-5 37q4 8 14 24l23 36q8 14 12 20l18 29l-20 -22l-50 -54q-7 -7 -10 -11q-2 -1 -5 -4q-24 -24 -42 -15q-10 6 -6 17q4 13 24 49l92 147q-2 7 4 13q8 8 13 12q8 9 18.5 1.5t4.5 -18.5l-68 -108l-25 -41
l127 133q10 10 20 1l2 -2v0q1 0 1 -1t1 -2v-1v-16l-26 -43l-4 -7l-56 -91l-31 -51z" />
    <glyph glyph-name="o.1" horiz-adv-x="216" 
d="M234 358q5 -40 -39 -94q-30 -39 -69 -64q-55 -37 -94 -32q-4 0 -10 2q-6 -8 -7 -9l-2 -3l-6 -7q-16 -18 -30 -28q-27 -21 -44 -18q-5 1 -11 5l-5 5q0 1 -1 1q-10 19 7 56q18 37 46 66l1 1q1 6 4 16t15.5 26t28.5 16h1q6 0 9 -2h1h1q18 -7 23 -29q3 -9 1 -23v-2v0
q0 -2 -1 -6.5t-2 -6.5q0 -7 -13 -32q2 0 6 0.5t5 0.5q33 6 74 36q19 15 29 26q2 2 4.5 4t5 5t4.5 5q6 9 11 14q16 24 22 36q1 3 3 9.5t3 9.5v9v6v2q0 3 -2 9l-1 1v1l-2 4l-1 2q-1 2 -2 2v1q-1 0 -1 1l-6 6l-2 2l-3 2q-1 0 -3.5 2t-3.5 2h-1q-1 1 -2 1l-1 1h-3q-1 1 -4 1h-1
q-15 2 -15 15q0 5 4.5 10t10.5 5q27 -3 46.5 -22.5t21.5 -46.5zM-56 135q26 15 50 46q-14 5 -20 17q-16 -21 -26 -42q-7 -13 -6 -22q1 1 2 1zM21 275q-4 1 -7.5 -0.5t-5.5 -3.5l-1 -2q13 6 14 6zM3 218zM24 238q2 10 2 12q-18 -14 -25 -21v-4v-1v-1q1 -1 1 -2t1 -2v-1
q0 -1 1 -2l2 -4h1q0 -1 1 -2l3 -3h1q8 16 12 31z" />
    <glyph glyph-name="a.1" horiz-adv-x="209" 
d="M230 417q19 -65 -23 -156q-30 -67 -79 -114l-3 -3q-6 -6 -13 -11.5l-12.5 -9.5l-10 -7l-7.5 -5l-3 -2q-49 -29 -82 -24q-1 0 -3 1h-3q-18 6 -25 20q-9 19 -2 42q2 7 25 53l1 1q-4 -3 -12 -7q-6 -4 -13 -6q-14 -4 -23 0q-9 3 -9 19q2 13 12 25q9 12 21 26t32 30.5t34 17.5
q5 2 12 -2l1 -1q1 0 2 -1q6 -6 6 -12v-2l3 2q10 7 19 0q7 -7 -2 -19q-38 -50 -65 -90q-41 -66 -7 -73q16 -3 35 6q27 14 43 28l3 2q0 1 1 1t2 1t3 2.5t3 2.5l10 10q12 10 22 22q19 22 35 48q6 9 16 27q1 3 3.5 8l3.5 7l3 6q0 3 2 4q32 82 12 135v1v1q-2 2 -2 4l-2 2
q-1 2 -2 3l-3 6l-3 3v2l-11 11q-3 3 -5 4q-1 1 -1 2q-1 0 -2 1q-6 5 -13 8q-2 0 -2 1q-1 0 -3 1q-2 0 -6 2q-1 0 -3.5 0.5t-3.5 0.5l-2 1h-3h-7h-3h-1q-15 -2 -18 10q-2 6 1 11.5t9 6.5q41 6 73 -20q34 -25 45 -64zM-27 221l23 19l30 25q-4 1 -7 6l-3 -3l-6 -7
q-2 -2 -4.5 -4t-5 -5t-3.5 -4q-13 -14 -24 -27z" />
    <glyph glyph-name="n.1" horiz-adv-x="295" 
d="M246 257q-6 -44 -28 -80q-6 -11 -22 -31q-19 -23 -41 -37q-34 -23 -74 -25q-28 0 -41.5 12t-12.5 31t7 36.5t16 37.5l20 34l-157 -138l-9 -7q-6 -3 -13 -3q0 -1 -1 -1t-2.5 0.5t-2.5 0.5v0l-2 2q-5 4 -3 12q0 3 4 8l35 54l81 128q10 0 15 -2q1 0 1 -1h1q11 -7 -1 -25
l-5 -9q-2 -2 -2 -3q-3 -3 -4 -7l-15 -22l-19 -31l-10 -15l-6 -9l107 96q19 15 31 11l1 -1q1 0 3 -2q11 -5 5 -28v-2l-3 -7l-6 -12l-9.5 -19.5t-8.5 -16.5l-1 -1q-9 -17 -14 -32q-5 -21 -2 -29q6 -14 27 -12q26 3 50 19q36 22 61 66q5 8 8 16q12 26 13 51q3 26 -3 48
q-2 8 -3 13q-1 1 -1 2q-1 2 -1 3q-1 2 -1 3q-4 8 -7 12q-3 6 -5 8q-17 21 -39 24q-6 1 -9.5 7t-1.5 11q3 13 18 11q33 -4 58 -40q17 -24 24 -62q3 -24 0 -47z" />
    <glyph glyph-name="b.1" horiz-adv-x="267" 
d="M366 475q12 -7 5 -20q-28 -49 -68 -96q-72 -81 -168 -136q-15 -9 -31 -17q-9 -18 -21 -30q-3 -4 -17 -18q-29 -28 -53 -46q-73 -52 -94 -25q-1 1 -3 5q0 1 -1 2l-1 1v2q-8 20 1 46q19 40 39 74q3 6 4 7l62 102q28 45 69 95q50 65 107 122q21 21 36 24q13 3 26 -1
q9 -2 13.5 -10t2.5 -17q-1 -8 -9 -20q-9 -14 -11 -16l-21 -29q-43 -53 -105 -105l-90 -76q-2 -2 -6 -8q-48 -75 -82 -146q-2 -4 -4 -7q-2 -4 -2 -6q-6 -12 0 -22l2 2q12 8 19 12q31 23 34 25q32 26 48 42q-9 0 -16 3q-13 5 -15 18q0 38 27 62q17 15 33 16q4 0 6 -1
q11 -2 14 -5q13 -8 16 -27v-7q13 7 39 23q41 26 77 58q31 27 67 70q1 1 3.5 4t3.5 5l1 1q1 1 1 2l4 4l14 20q16 23 24 39q7 12 20 5zM245 549zM130 420l-8.5 -11t-8.5 -10q3 2 8 6.5t7 6.5l43 42q23 24 42 48q6 9 18 25q2 3 4 7l-1 -1q-1 -1 -4 -3t-4 -3q-9 -9 -13 -14
l-29 -30zM83 241v6q0 6 -7 4v0q-1 0 -3 -2q-2 -1 -3.5 -2l-3 -2t-2.5 -2l-1 -1q-1 -1 -1 -2q-2 -1 -4 -3q-2 -4 -3 -5l-1 -2q-1 -1 -1 -2l-1 -2v-1l-1 -1q-1 -1 -1 -2.5t-1 -2.5q0 -1 -0.5 -2.5t-0.5 -2.5q1 0 3 0.5t3 0.5q10 4 21 10q2 2 4 2v1l3 9v2q1 1 1 2z" />
    <glyph glyph-name="c.1" horiz-adv-x="212" 
d="M327 452q16 -36 -11 -98q-32 -76 -95 -142q-61 -64 -135 -93q-2 0 -6 -1.5t-6 -2.5q-22 -9 -41.5 -13.5t-34 -5.5t-27 0.5t-21 5.5t-15 9t-11 10t-7 9t-3.5 6l-1 3q-6 22 7 51l13 23q0 1 1 2q7 12 17 23q2 4 4 6q23 30 40 43q4 4 12 7l1 1q15 4 30 2q6 0 12 -3
q9 -3 9 -17t-12 -21q-5 -4 -13 -7q-11 -4 -17.5 -3t-8.5 5l-3 4q-2 0 -2 -2q-20 -17 -37 -43q-12 -18 -17 -27q-4 -9 -6 -20l2 -17q17 -45 126 -2q10 5 13 6t17 8q63 32 114 90q22 27 43 59q27 45 37 72q9 29 9 41q0 8 -3 18v1v1q-2 2 -3 4q0 1 -2 3l-2 3q-7 10 -27 21
q-2 1 -5 2t-7 2t-6 2q-3 1 -10 2.5t-10 2.5q-6 1 -9.5 7t-1.5 11q4 12 18 10q4 -1 11.5 -2.5t11.5 -2.5q52 -15 68 -53z" />
    <glyph glyph-name="d.1" horiz-adv-x="157" 
d="M266 572q22 -5 5 -45q-21 -47 -81 -123q-3 -3 -28.5 -37.5t-39.5 -51.5l-40 -46l-37 -37l-41 -63l-156 -230q-7 -13 -20 -5q-12 8 -5 20l46 67l81 121l41 60q-1 0 -1 -0.5t-1 -0.5q-4 -2 -6 -4q-12 -6 -18 -8q-14 -4 -23 0q-10 4 -8 19q0 11 11 25q17 24 46.5 51.5
t49.5 22.5q4 -2 5 -3q7 -4 7 -13v-3l1 1q10 14 14 21l29 40l36 52l39 55l67 96q2 2 6 8q13 13 21 11zM-4 240l30 25q-4 1 -6 6q-2 -1 -4 -3q-1 -1 -3 -3.5t-3 -3.5q-2 -2 -4.5 -4t-5 -5t-3.5 -4q-15 -15 -24 -28z" />
    <glyph glyph-name="s.1" horiz-adv-x="251" 
d="M16 73q15 -13 22 -30q10 -33 -13 -72q-14 -24 -43 -45q-24 -19 -56 -36q-36 -22 -71 -38q-41 -18 -82 -30q-42 -14 -82 -20q-32 -5 -44 0q-16 7 -21 26q-6 29 27 70q44 52 130 109l145 91l-6 6q-23 28 -17 61q7 31 40 72q33 38 61 59q13 9 20 0q5 -4 4 -10.5t-6 -10.5
q-12 -8 -32 -27q-31 -29 -50 -63q-6 -12 -7 -18v-1l-1 -1v-4q0 -1 -0.5 -3t-0.5 -3q1 -3 1 -4l-1 -2l2 -4v-1v-1l3 -6t2 -6h1q0 -1 0.5 -1t0.5 -1l3 -3q2 -4 4 -5q3 -3 5 -4l1 -2h1l137 82q11 6 80 47l38 23l40 24q15 -10 -3 -25l-267 -168q2 -2 4 -2q29 -21 31 -23z
M-345 -152zM9 5q2 10 2 15q0 13 -12 27q-8 9 -26 20q-11 8 -14 10q-4 2 -7 3l-14 -9t-17 -10l-77 -48l-70 -46q-30 -20 -63 -48q-18 -18 -27 -28q-16 -16 -23 -31q-2 -2 -4 -8q0 -2 -2 -3v-6q-3 -13 13 -14q10 0 34 4q14 2 42 10q83 22 150 60q23 13 55 33q1 1 4 2.5t4 2.5
l1 1q2 0 2 1l1 1q8 6 11 9q1 1 5 4.5t6 5.5l3 2l3 3q0 1 1 1l1 2l9 12q2 2 2 4q1 1 2.5 3.5t1.5 3.5t1 3.5t1 3.5q1 1 1 3v1z" />
  </font>
</defs>
</svg>
